<svg width="15" height="11" viewBox="0 0 15 11" fill="none" xmlns="http://www.w3.org/2000/svg">
<g id="check icon">
<path id="Path 832" fill-rule="evenodd" clip-rule="evenodd" d="M13.093 0.171375L4.91505 7.96031L1.90509 5.09062C1.79037 4.98165 1.63456 4.92046 1.47251 4.92046C1.31046 4.92046 1.15515 4.98165 1.04043 5.09062L0.176252 5.91075C0.0635788 6.02018 0 6.16733 0 6.32058C0 6.47382 0.0635788 6.62094 0.176252 6.73038L3.62562 10.0104L4.48931 10.8305C4.54543 10.8842 4.61209 10.9268 4.68558 10.9559C4.75906 10.985 4.8379 11 4.91749 11C4.99708 11 5.07591 10.985 5.1494 10.9559C5.22289 10.9268 5.28955 10.8842 5.34567 10.8305L6.20984 10.0104L14.8242 1.81064C14.9369 1.70128 15 1.55424 15 1.40107C15 1.2479 14.9369 1.10083 14.8242 0.991472L13.9596 0.171375C13.9027 0.117061 13.8352 0.0739411 13.7609 0.0445361C13.6865 0.015131 13.6066 0 13.526 0C13.4455 0 13.3661 0.015131 13.2917 0.0445361C13.2173 0.0739411 13.1498 0.117061 13.093 0.171375Z" fill="#37803C"/>
</g>
</svg>
