<svg width="24" height="25" viewBox="0 0 24 25" fill="none" xmlns="http://www.w3.org/2000/svg">
<g clip-path="url(#clip0_4_6763)">
<path d="M17.2286 12.3413C17.2411 13.0244 17.1173 13.7032 16.8645 14.338C16.6117 14.9728 16.2349 15.5508 15.7562 16.0384C15.2775 16.5259 14.7064 16.9132 14.0763 17.1775C13.4463 17.4419 12.7699 17.578 12.0866 17.578C11.4033 17.578 10.7269 17.4419 10.0968 17.1775C9.46677 16.9132 8.8957 16.5259 8.41699 16.0384C7.93827 15.5508 7.56151 14.9728 7.3087 14.338C7.05589 13.7032 6.93211 13.0244 6.94458 12.3413C6.96919 10.9938 7.52175 9.70981 8.48338 8.76558C9.44502 7.82134 10.7389 7.29231 12.0866 7.29231C13.4343 7.29231 14.7281 7.82134 15.6898 8.76558C16.6514 9.70981 17.204 10.9938 17.2286 12.3413Z" stroke="#01295F" stroke-width="1.71429" stroke-linecap="round" stroke-linejoin="round"/>
<path d="M17.2286 12.3413V14.5699C17.2286 20.5527 26.6057 14.9127 21.6857 6.787C20.695 5.09508 19.281 3.69012 17.5828 2.71026C15.8846 1.7304 13.9606 1.20938 12 1.19843C10.3528 1.20351 8.72731 1.57371 7.24039 2.28236C5.75348 2.99102 4.44217 4.02051 3.40084 5.29673C2.35951 6.57296 1.61407 8.06417 1.21818 9.66304C0.822287 11.2619 0.785784 12.9287 1.1113 14.5433C1.43682 16.158 2.11626 17.6804 3.10071 19.001C4.08517 20.3216 5.35016 21.4075 6.80462 22.1806C8.25909 22.9536 9.86685 23.3947 11.5122 23.4718C13.1575 23.549 14.7995 23.2605 16.32 22.627" stroke="#01295F" stroke-width="1.71429" stroke-linecap="round" stroke-linejoin="round"/>
</g>
<defs>
<clipPath id="clip0_4_6763">
<rect width="24" height="24" fill="white" transform="translate(0 0.341278)"/>
</clipPath>
</defs>
</svg>
