<svg width="25" height="23" viewBox="0 0 25 23" fill="none" xmlns="http://www.w3.org/2000/svg">
<g clip-path="url(#clip0_380_1645)">
<path d="M4.98133 10.11C5.64517 10.3298 6.26533 10.5365 6.88692 10.7401C8.38791 11.2314 9.88961 11.7208 11.3913 12.2108C11.705 12.3129 12.0158 12.4219 12.3352 12.5078C12.4461 12.5377 12.5915 12.5358 12.7004 12.5009C14.1212 12.0439 15.5384 11.5788 16.9555 11.1137C17.9538 10.7862 18.9507 10.4556 20.0005 10.1094C19.3839 9.90702 18.8124 9.71401 18.2374 9.5322C17.8041 9.39522 17.6967 9.27069 17.6581 8.98303C17.6172 8.67732 18.0039 8.40273 18.4222 8.53598C19.3581 8.8336 20.2919 9.13495 21.2258 9.43756C21.3941 9.49235 21.5659 9.54652 21.7199 9.62559C21.8961 9.71525 22.1016 9.80304 22.2111 9.94189C22.933 10.8547 23.6434 11.7743 24.3337 12.7052C24.6252 13.0987 24.5629 13.4511 23.9076 13.6372C23.3999 13.7817 22.9036 13.9573 22.3988 14.1092C22.2276 14.1609 22.2355 14.2667 22.2355 14.385C22.2369 15.4261 22.2341 16.4665 22.2369 17.5076C22.2391 18.2989 21.9533 18.9838 21.2659 19.5224C20.9064 19.8038 20.4767 19.9713 20.0277 20.1158C18.7745 20.5205 17.5256 20.9352 16.2738 21.3449C15.1996 21.696 14.1118 22.0186 13.0563 22.4077C12.5614 22.5901 12.1561 22.4756 11.7193 22.3318C10.32 21.871 8.91998 21.4109 7.51925 20.9526C6.54533 20.6344 5.56353 20.3331 4.59606 20.0012C3.63073 19.6694 3.07574 19.0143 2.82295 18.1601C2.76637 17.9696 2.79931 17.7585 2.7986 17.5567C2.79717 16.5008 2.79359 15.4441 2.80218 14.3881C2.80361 14.24 2.74561 14.1702 2.59379 14.1229C2.08391 13.9635 1.5812 13.7854 1.06702 13.6366C0.576483 13.494 0.300061 13.1572 0.673159 12.6809C1.39715 11.7569 2.09465 10.8167 2.8251 9.89644C2.93824 9.75386 3.15379 9.64801 3.34786 9.58201C4.26951 9.26882 5.19688 8.96622 6.12927 8.67794C6.58257 8.53784 6.99004 8.74207 6.94278 9.19037C6.91986 9.40829 6.76661 9.51103 6.56323 9.58014C6.05193 9.75572 5.53775 9.92508 4.98061 10.1119L4.98133 10.11ZM3.93866 14.5668C3.93866 15.6421 3.94367 16.6981 3.93651 17.7547C3.93293 18.284 4.39125 18.8574 4.95626 19.043C5.63944 19.2671 6.31975 19.4981 7.00365 19.7217C8.54545 20.226 10.088 20.7285 11.6312 21.2284C11.937 21.3274 11.9399 21.3212 11.9399 21.0255C11.9399 19.0368 11.9399 17.0481 11.9399 15.0593C11.9399 14.9778 11.9399 14.8956 11.9399 14.7536C11.8532 14.8433 11.8059 14.8838 11.7701 14.9311C11.4114 15.3962 11.0547 15.8626 10.696 16.3277C10.5463 16.5213 10.2355 16.6271 10.0092 16.5531C8.69727 16.1241 7.38749 15.6913 6.07556 15.2611C5.36732 15.0288 4.65836 14.8003 3.93866 14.5662V14.5668ZM13.1035 21.3175C13.7473 21.1014 14.379 20.8829 15.0156 20.6762C16.6204 20.1563 18.2317 19.6525 19.8315 19.1214C20.6894 18.8369 21.0854 18.3506 21.094 17.5026C21.1012 16.7803 21.0954 16.0581 21.0954 15.3358V14.5438C20.1566 14.852 19.2471 15.1521 18.3362 15.4491C17.2227 15.8127 16.1077 16.1726 14.9941 16.5362C14.7506 16.6159 14.4814 16.5499 14.3331 16.3594C13.9299 15.8426 13.5289 15.3246 13.1035 14.7767V21.3169V21.3175ZM13.3993 13.3228C13.4022 13.3322 13.4036 13.3477 13.4122 13.3589C13.9235 14.0364 14.4327 14.715 14.9526 15.3869C14.9791 15.4211 15.1065 15.4255 15.1703 15.4049C15.9702 15.1496 16.7658 14.8844 17.5635 14.626C19.3839 14.0364 21.205 13.4486 23.0404 12.8558C23.0161 12.8073 23.0025 12.7643 22.9752 12.7282C22.5248 12.1342 22.0629 11.5458 21.6268 10.9437C21.4786 10.7389 21.3332 10.7233 21.0918 10.8042C19.709 11.2687 18.3219 11.7233 16.9341 12.1772C15.7575 12.5619 14.5773 12.9405 13.3986 13.3222L13.3993 13.3228ZM11.614 13.3353C11.4242 13.2755 11.2474 13.2213 11.0719 13.164C9.85523 12.7687 8.63855 12.3727 7.42186 11.9767C6.20589 11.5807 4.98706 11.1897 3.77753 10.7806C3.58346 10.7152 3.51114 10.775 3.42449 10.8889C3.2519 11.1162 3.0786 11.3422 2.90602 11.5695C2.58878 11.9873 2.27154 12.405 1.93639 12.8465C2.28156 12.9604 2.59307 13.0638 2.9053 13.1659C3.9981 13.5227 5.09161 13.8807 6.18512 14.2356C7.39035 14.6272 8.59844 15.0114 9.79866 15.413C9.94761 15.4628 10.0171 15.4329 10.0844 15.3458C10.5943 14.6802 11.1006 14.0127 11.6147 13.3359L11.614 13.3353Z" fill="#001B2E"/>
</g>
<path d="M12.895 1.93452C13.3448 1.30603 13.8894 0.830356 14.6301 0.628256C15.5974 0.363307 16.5167 0.508721 17.3387 1.06573C18.3196 1.72995 18.7522 2.71704 18.7571 3.87542C18.7608 4.77132 18.4256 5.56863 17.8575 6.26489C17.0836 7.21377 16.1594 8 15.2006 8.75294C14.6116 9.2163 14.0361 9.69813 13.468 10.1874C13.0071 10.5854 12.768 10.6113 12.2936 10.2194C11.4482 9.52191 10.6053 8.82072 9.77349 8.10721C9.28795 7.69068 8.80735 7.2643 8.36002 6.80834C7.70319 6.13796 7.16713 5.36776 7.0402 4.4201C6.90711 3.43178 7.09442 2.49892 7.74509 1.68559C8.39945 0.867326 9.25222 0.49763 10.2652 0.514882C11.2757 0.532135 12.1174 0.935104 12.7224 1.77308C12.7656 1.83223 12.8309 1.8766 12.8937 1.93452H12.895ZM8.19119 3.80764C8.16901 4.40655 8.35755 4.92166 8.71985 5.33942C9.23989 5.93832 9.78581 6.52121 10.3736 7.05234C11.1229 7.72888 11.9325 8.33765 12.7015 8.99325C12.8469 9.11771 12.9442 9.07704 13.0539 9.00187C13.1969 8.90329 13.3238 8.78375 13.4581 8.67161C14.0644 8.16513 14.688 7.67836 15.2696 7.14476C15.8735 6.59022 16.4785 6.02459 17.006 5.3998C17.5457 4.76022 17.7195 3.96291 17.4632 3.15698C17.1329 2.11813 16.3997 1.69914 15.4372 1.69791C14.8383 1.69791 14.3244 1.97148 13.9905 2.48906C13.781 2.81439 13.6035 3.16314 13.4335 3.51188C13.33 3.72261 13.1932 3.84338 12.9529 3.8594C12.6929 3.87665 12.4809 3.82982 12.3638 3.56611C12.2517 3.31348 12.1482 3.05469 12.0089 2.81809C11.4618 1.89631 10.5917 1.48842 9.58001 1.80019C8.80858 2.03803 8.15915 2.83411 8.19365 3.80764H8.19119Z" fill="#EB141C"/>
<defs>
<clipPath id="clip0_380_1645">
<rect width="24" height="14" fill="white" transform="translate(0.499939 8.5)"/>
</clipPath>
</defs>
</svg>
