<svg width="25" height="14" viewBox="0 0 25 14" fill="none" xmlns="http://www.w3.org/2000/svg">
<g clip-path="url(#clip0_380_834)">
<path d="M4.81464 1.61C5.47848 1.8298 6.09864 2.03651 6.72023 2.24011C8.22122 2.73137 9.72292 3.22077 11.2246 3.71078C11.5383 3.81289 11.8491 3.92186 12.1685 4.00778C12.2795 4.03767 12.4248 4.0358 12.5337 4.00093C13.9545 3.54392 15.3717 3.07881 16.7889 2.6137C17.7871 2.28619 18.784 1.95557 19.8338 1.60938C19.2172 1.40702 18.6458 1.21401 18.0707 1.0322C17.6375 0.895217 17.53 0.770689 17.4914 0.483031C17.4506 0.177316 17.8373 -0.0972674 18.2555 0.035977C19.1914 0.333598 20.1253 0.634954 21.0591 0.937556C21.2274 0.992348 21.3992 1.04652 21.5532 1.12559C21.7294 1.21525 21.9349 1.30304 22.0445 1.44189C22.7663 2.35468 23.4767 3.27431 24.167 4.20516C24.4585 4.59866 24.3962 4.95108 23.7409 5.13724C23.2332 5.2817 22.7369 5.45728 22.2321 5.6092C22.0609 5.66088 22.0688 5.76673 22.0688 5.88503C22.0702 6.92608 22.0674 7.96651 22.0702 9.00756C22.0724 9.79893 21.7867 10.4838 21.0992 11.0224C20.7397 11.3038 20.31 11.4713 19.861 11.6158C18.6078 12.0205 17.3589 12.4352 16.1071 12.8449C15.0329 13.196 13.9452 13.5186 12.8896 13.9077C12.3948 14.0901 11.9894 13.9756 11.5526 13.8318C10.1533 13.371 8.75329 12.9109 7.35257 12.4526C6.37864 12.1344 5.39685 11.8331 4.42937 11.5012C3.46404 11.1694 2.90905 10.5143 2.65626 9.66008C2.59969 9.46955 2.63263 9.25848 2.63191 9.05675C2.63048 8.00075 2.6269 6.94414 2.63549 5.88814C2.63692 5.73996 2.57892 5.67022 2.4271 5.6229C1.91723 5.46351 1.41451 5.28543 0.900337 5.13662C0.409796 4.99404 0.133374 4.65719 0.506472 4.18087C1.23047 3.25688 1.92797 2.3167 2.65841 1.39644C2.77155 1.25386 2.98711 1.14801 3.18117 1.08201C4.10282 0.768821 5.03019 0.466219 5.96258 0.177938C6.41588 0.0378449 6.82335 0.24207 6.77609 0.690369C6.75317 0.908292 6.59993 1.01103 6.39655 1.08014C5.88524 1.25572 5.37107 1.42508 4.81393 1.61187L4.81464 1.61ZM3.77197 6.06684C3.77197 7.14214 3.77699 8.19813 3.76982 9.25474C3.76624 9.78399 4.22456 10.3574 4.78958 10.543C5.47275 10.7671 6.15307 10.9981 6.83696 11.2217C8.37876 11.726 9.92128 12.2285 11.4645 12.7284C11.7703 12.8274 11.7732 12.8212 11.7732 12.5255C11.7732 10.5368 11.7732 8.54805 11.7732 6.55935C11.7732 6.47778 11.7732 6.39559 11.7732 6.25363C11.6865 6.34329 11.6393 6.38376 11.6034 6.43108C11.2447 6.89619 10.888 7.36255 10.5293 7.82766C10.3796 8.0213 10.0688 8.12715 9.84251 8.05305C8.53058 7.62406 7.2208 7.19132 5.90887 6.76108C5.20063 6.52884 4.49167 6.30033 3.77197 6.06622V6.06684ZM12.9369 12.8175C13.5807 12.6014 14.2123 12.3829 14.8489 12.1762C16.4537 11.6563 18.065 11.1525 19.6648 10.6214C20.5227 10.3369 20.9187 9.85061 20.9273 9.00258C20.9345 8.28032 20.9287 7.55806 20.9287 6.8358V6.0438C19.9899 6.35201 19.0804 6.65212 18.1695 6.94912C17.056 7.31274 15.941 7.67262 14.8274 8.03624C14.5839 8.11594 14.3147 8.04994 14.1664 7.85942C13.7633 7.34263 13.3622 6.82459 12.9369 6.27667V12.8169V12.8175ZM13.2326 4.82281C13.2355 4.83215 13.2369 4.84772 13.2455 4.85893C13.7568 5.53636 14.266 6.21503 14.7859 6.88686C14.8124 6.9211 14.9398 6.92546 15.0036 6.90491C15.8035 6.64963 16.5991 6.38439 17.3968 6.12599C19.2172 5.53636 21.0383 4.94859 22.8737 4.35583C22.8494 4.30727 22.8358 4.26431 22.8086 4.22819C22.3581 3.6342 21.8962 3.04581 21.4601 2.44372C21.3119 2.23887 21.1665 2.2233 20.9252 2.30424C19.5423 2.76873 18.1552 3.22326 16.7674 3.67716C15.5908 4.06195 14.4106 4.44051 13.2319 4.82219L13.2326 4.82281ZM11.4473 4.83527C11.2576 4.77549 11.0807 4.72132 10.9052 4.66404C9.68855 4.26867 8.47186 3.87267 7.25517 3.47667C6.0392 3.08067 4.82037 2.68966 3.61085 2.28058C3.41678 2.21521 3.34445 2.27498 3.2578 2.38892C3.08521 2.61619 2.91191 2.8422 2.73933 3.06947C2.42209 3.48726 2.10485 3.90505 1.7697 4.34649C2.11487 4.46044 2.42639 4.5638 2.73861 4.66591C3.83141 5.02268 4.92492 5.3807 6.01844 5.7356C7.22366 6.12724 8.43176 6.5114 9.63197 6.91301C9.78093 6.96282 9.85039 6.93293 9.9177 6.84576C10.4276 6.18016 10.9339 5.51269 11.448 4.83589L11.4473 4.83527Z" fill="#445979"/>
</g>
<defs>
<clipPath id="clip0_380_834">
<rect width="24" height="14" fill="white" transform="translate(0.333252)"/>
</clipPath>
</defs>
</svg>
