<svg width="15" height="12" viewBox="0 0 15 12" fill="none" xmlns="http://www.w3.org/2000/svg">
<path fill-rule="evenodd" clip-rule="evenodd" d="M13.093 1.01268L4.91505 8.80161L1.90509 5.93193C1.79037 5.82296 1.63456 5.76177 1.47251 5.76177C1.31046 5.76177 1.15515 5.82296 1.04043 5.93193L0.176252 6.75205C0.0635788 6.86149 0 7.00864 0 7.16188C0 7.31513 0.0635788 7.46225 0.176252 7.57169L3.62562 10.8517L4.48931 11.6718C4.54543 11.7255 4.61209 11.7681 4.68558 11.7972C4.75906 11.8263 4.8379 11.8413 4.91749 11.8413C4.99708 11.8413 5.07591 11.8263 5.1494 11.7972C5.22289 11.7681 5.28955 11.7255 5.34567 11.6718L6.20984 10.8517L14.8242 2.65195C14.9369 2.54259 15 2.39555 15 2.24238C15 2.08921 14.9369 1.94214 14.8242 1.83278L13.9596 1.01268C13.9027 0.95837 13.8352 0.91525 13.7609 0.885845C13.6865 0.85644 13.6066 0.841309 13.526 0.841309C13.4455 0.841309 13.3661 0.85644 13.2917 0.885845C13.2173 0.91525 13.1498 0.95837 13.093 1.01268Z" fill="#37803C"/>
</svg>
