<svg width="17" height="18" viewBox="0 0 17 18" fill="none" xmlns="http://www.w3.org/2000/svg">
<path fill-rule="evenodd" clip-rule="evenodd" d="M0.888184 14.4892C0.726837 14.6511 0.636763 14.8704 0.636763 15.099C0.636763 15.3276 0.726837 15.5469 0.888184 15.7089L2.10427 16.9285C2.26709 17.0905 2.48717 17.1814 2.71684 17.1814C2.94651 17.1814 3.16712 17.0905 3.32995 16.9285L8.81752 11.4396L14.3062 16.9285C14.4689 17.0904 14.6891 17.1814 14.9187 17.1814C15.1483 17.1814 15.3686 17.0904 15.5313 16.9285L16.7474 15.7089C16.909 15.5471 16.9999 15.3277 16.9999 15.099C16.9999 14.8704 16.909 14.651 16.7474 14.4892L11.2593 8.99977L16.7474 3.5103C16.909 3.3485 16.9999 3.12918 16.9999 2.90049C16.9999 2.6718 16.909 2.45248 16.7474 2.29068L15.5313 1.07103C15.3686 0.909088 15.1483 0.818182 14.9187 0.818182C14.6891 0.818182 14.4689 0.909088 14.3062 1.07103L8.81752 6.5605L3.32995 1.07103C3.16712 0.909054 2.94651 0.818115 2.71684 0.818115C2.48717 0.818115 2.26709 0.909054 2.10427 1.07103L0.888184 2.29068C0.726704 2.45255 0.63623 2.67185 0.63623 2.90049C0.63623 3.12913 0.726704 3.34843 0.888184 3.5103L6.37629 8.99977L0.888184 14.4892Z" fill="#F36D00"/>
</svg>
