<svg width="20" height="21" viewBox="0 0 20 21" fill="none" xmlns="http://www.w3.org/2000/svg">
<g clip-path="url(#clip0_380_737)">
<path d="M8.49734 20.3394C6.67688 20.3394 4.85705 20.345 3.0366 20.3375C1.49862 20.3312 0.298104 19.317 0.0343785 17.8109C0.00500626 17.6434 0.00188155 17.469 0.00188155 17.2984C6.72712e-06 13.6725 -0.00249304 10.046 0.00188155 6.42005C0.00375638 4.8777 1.00741 3.68531 2.51977 3.41409C2.67976 3.38534 2.84599 3.37971 3.00972 3.37909C4.98641 3.37659 6.96248 3.37471 8.93917 3.37909C9.6816 3.38034 10.1641 4.01403 9.94595 4.68334C9.80721 5.10893 9.43662 5.3639 8.93604 5.36515C7.61554 5.36765 6.29567 5.3664 4.97517 5.3664C4.35022 5.3664 3.72528 5.36453 3.10034 5.3664C2.40353 5.36953 1.99357 5.77699 1.99357 6.47442C1.99232 10.0616 1.99232 13.6488 1.99357 17.2359C1.99357 17.944 2.40416 18.3496 3.11909 18.3502C6.705 18.3514 10.2909 18.3514 13.8768 18.3502C14.6005 18.3502 15.0011 17.9433 15.0011 17.2115C15.0024 15.2855 14.9999 13.3594 15.0024 11.4333C15.003 10.834 15.3804 10.4016 15.9235 10.3634C16.4941 10.3234 16.979 10.7521 16.9884 11.3327C17.0015 12.1358 16.9934 12.9388 16.9934 13.7425C16.9934 14.9355 16.9997 16.1285 16.9915 17.3215C16.9815 18.8433 15.9716 20.0357 14.4705 20.3013C14.2724 20.3362 14.0662 20.3375 13.8637 20.3375C12.0745 20.34 10.2859 20.3387 8.49671 20.3387L8.49734 20.3394Z" fill="#445979"/>
<path d="M16.5791 2.37124C16.431 2.37124 16.3479 2.37124 16.2641 2.37124C15.163 2.37061 14.0612 2.37624 12.96 2.36561C12.4695 2.36061 12.0676 1.9894 12.0108 1.52632C11.9476 1.01449 12.2282 0.562031 12.7119 0.426419C12.8519 0.387048 13.005 0.384548 13.1519 0.384548C14.7924 0.382048 16.4322 0.382673 18.0727 0.382673C18.3695 0.382673 18.6664 0.379548 18.9632 0.383923C19.5838 0.392672 19.9938 0.78951 19.9956 1.4107C20.0019 3.38302 20.0013 5.35596 19.9956 7.32827C19.9938 7.94009 19.5701 8.36317 18.992 8.35943C18.4183 8.35568 18.0083 7.92447 18.0064 7.31015C18.0033 6.234 18.0052 5.15847 18.0052 4.08233C18.0052 4.00733 18.0052 3.93234 18.0052 3.79298C17.899 3.89547 17.834 3.95671 17.7708 4.01921C15.0092 6.7752 12.2464 9.53057 9.48787 12.2897C9.16728 12.6103 8.80669 12.7571 8.36548 12.6122C7.71366 12.3972 7.47744 11.6047 7.89865 11.0642C7.96552 10.9786 8.04551 10.9023 8.12238 10.8254C10.8671 8.08508 13.6119 5.34533 16.3566 2.60496C16.4166 2.54497 16.4735 2.48248 16.5797 2.37186L16.5791 2.37124Z" fill="#445979"/>
</g>
<defs>
<clipPath id="clip0_380_737">
<rect width="20" height="19.96" fill="white" transform="translate(0 0.381348)"/>
</clipPath>
</defs>
</svg>
