<svg width="24" height="20" viewBox="0 0 24 20" fill="none" xmlns="http://www.w3.org/2000/svg">
<g clip-path="url(#clip0_380_2093)">
<path d="M16.2158 9.69066C16.1243 9.69066 16.0313 9.68784 15.9383 9.68291C14.4954 9.60118 12.5996 8.66841 11.9423 6.31392H8.38657C5.9877 6.31392 3.59023 6.31392 1.19136 6.31251C1.04764 6.31251 0.868693 6.31251 0.702427 6.26249C0.241674 6.1237 -0.0506992 5.67492 0.00707099 5.19444C0.0641367 4.72524 0.441052 4.36241 0.925054 4.3131C0.986347 4.30675 1.04482 4.30605 1.08921 4.30605C1.11316 4.30605 1.20827 4.30746 1.23081 4.30746H11.9542C12.2649 3.13515 12.9251 2.22562 13.9177 1.60142C14.6236 1.15687 15.3937 0.932129 16.2081 0.932129C16.2785 0.932129 16.3504 0.933538 16.4216 0.937061C18.385 1.03006 19.9751 2.3475 20.5056 4.30605C20.5056 4.30605 21.8801 4.30464 22.0837 4.30464C22.3663 4.30464 22.6488 4.30464 22.932 4.30746C23.2441 4.30957 23.5252 4.42159 23.7224 4.62238C23.9042 4.80696 24.0021 5.05706 23.9993 5.32548C23.993 5.89473 23.5463 6.30969 22.9376 6.31251C22.5938 6.31392 22.25 6.31462 21.9041 6.31462C21.9041 6.31462 20.7219 6.31392 20.5063 6.31392C20.1879 7.50102 19.5221 8.41619 18.5259 9.03616C17.8271 9.47085 17.0507 9.69136 16.2173 9.69136L16.2158 9.69066ZM16.2215 2.93929C14.9146 2.94352 13.8515 4.00874 13.8508 5.31351C13.8508 6.6387 14.8921 7.67786 16.2208 7.68068C17.5537 7.68068 18.5985 6.64645 18.6034 5.32548C18.6063 4.68719 18.3604 4.08765 17.9116 3.63747C17.4635 3.18728 16.8654 2.93929 16.2285 2.93929H16.2208H16.2215Z" fill="#F36D00"/>
<path d="M7.77573 19.7504C7.67568 19.7504 7.57283 19.7469 7.47067 19.7406C5.90594 19.6412 4.08689 18.5612 3.49369 16.373H1.99236C1.69435 16.373 1.39705 16.373 1.09904 16.373C0.767213 16.3723 0.474135 16.2595 0.274053 16.0573C0.0936971 15.8742 -3.36999e-06 15.6346 0.00211017 15.3634C0.00704178 14.7779 0.463567 14.3679 1.11243 14.3658C1.41255 14.3651 1.71267 14.3644 2.0128 14.3644H3.48875C4.13691 12.0353 6.09123 10.9905 7.76445 10.9905C7.80954 10.9905 7.85393 10.9912 7.89902 10.9926C9.8787 11.0581 11.5294 12.4073 12.0451 14.3644H15.4352C17.894 14.3644 20.3527 14.3644 22.8115 14.3665C22.9489 14.3665 23.1292 14.3729 23.2983 14.4215C23.7464 14.5504 24.0521 15.021 23.993 15.493C23.9345 15.9608 23.5364 16.337 23.0658 16.3673C23.0003 16.3716 22.9362 16.3723 22.8876 16.3723H22.7382H12.0479C11.745 17.5129 11.1151 18.4055 10.1753 19.0269C9.44965 19.5067 8.64228 19.7497 7.77573 19.7497V19.7504ZM7.77079 12.9983C6.46533 12.9983 5.3994 14.0593 5.39517 15.3634C5.39094 16.69 6.42799 17.7334 7.7567 17.7397H7.76868C9.09387 17.7397 10.1394 16.709 10.1485 15.3937C10.1528 14.7533 9.909 14.1523 9.46092 13.7C9.01285 13.2484 8.41402 12.9991 7.77432 12.9983L7.77079 12.8384V12.9983Z" fill="#F36D00"/>
</g>
<defs>
<clipPath id="clip0_380_2093">
<rect width="24" height="18.8183" fill="white" transform="translate(0 0.932129)"/>
</clipPath>
</defs>
</svg>
