<svg width="21" height="22" viewBox="0 0 21 22" fill="none" xmlns="http://www.w3.org/2000/svg">
<path d="M8.86669 6.5C8.86669 8.68152 7.09821 10.45 4.91669 10.45C2.73516 10.45 0.966687 8.68152 0.966687 6.5C0.966687 4.31848 2.73516 2.55 4.91669 2.55C7.09821 2.55 8.86669 4.31848 8.86669 6.5Z" stroke="#445979" stroke-width="1.1" stroke-linecap="round" stroke-linejoin="round"/>
<path d="M8.86669 17.5C8.86669 19.6815 7.09821 21.45 4.91669 21.45C2.73516 21.45 0.966687 19.6815 0.966687 17.5C0.966687 15.3185 2.73516 13.55 4.91669 13.55C7.09821 13.55 8.86669 15.3185 8.86669 17.5Z" stroke="#445979" stroke-width="1.1" stroke-linecap="round" stroke-linejoin="round"/>
<path d="M19.8667 6.5C19.8667 8.68152 18.0982 10.45 15.9167 10.45C13.7352 10.45 11.9667 8.68152 11.9667 6.5C11.9667 4.31848 13.7352 2.55 15.9167 2.55C18.0982 2.55 19.8667 4.31848 19.8667 6.5Z" stroke="#445979" stroke-width="1.1" stroke-linecap="round" stroke-linejoin="round"/>
<path d="M19.8667 17.5C19.8667 19.6815 18.0982 21.45 15.9167 21.45C13.7352 21.45 11.9667 19.6815 11.9667 17.5C11.9667 15.3185 13.7352 13.55 15.9167 13.55C18.0982 13.55 19.8667 15.3185 19.8667 17.5Z" stroke="#445979" stroke-width="1.1" stroke-linecap="round" stroke-linejoin="round"/>
</svg>
