<svg width="23" height="24" viewBox="0 0 23 24" fill="none" xmlns="http://www.w3.org/2000/svg">
<path d="M8.98665 8.5C8.98665 10.6815 7.21818 12.45 5.03665 12.45C2.85513 12.45 1.08665 10.6815 1.08665 8.5C1.08665 6.31848 2.85513 4.55 5.03665 4.55C7.21818 4.55 8.98665 6.31848 8.98665 8.5Z" stroke="#001B2E" stroke-width="1.1" stroke-linecap="round" stroke-linejoin="round"/>
<path d="M8.98665 19.5C8.98665 21.6815 7.21818 23.45 5.03665 23.45C2.85513 23.45 1.08665 21.6815 1.08665 19.5C1.08665 17.3185 2.85513 15.55 5.03665 15.55C7.21818 15.55 8.98665 17.3185 8.98665 19.5Z" stroke="#001B2E" stroke-width="1.1" stroke-linecap="round" stroke-linejoin="round"/>
<path d="M16.9317 5.16099C17.3433 4.58581 17.8418 4.15048 18.5196 3.96552C19.4049 3.72305 20.2463 3.85613 20.9985 4.36589C21.8963 4.97378 22.2921 5.87714 22.2966 6.93728C22.3 7.75719 21.9932 8.48687 21.4733 9.12408C20.7651 9.99249 19.9192 10.712 19.0418 11.4011C18.5027 11.8252 17.976 12.2661 17.4561 12.7139C17.0343 13.0781 16.8155 13.1018 16.3813 12.7432C15.6076 12.1049 14.8362 11.4631 14.075 10.8101C13.6306 10.4289 13.1908 10.0387 12.7814 9.62144C12.1803 9.00792 11.6897 8.30304 11.5735 7.43576C11.4517 6.53127 11.6231 5.67752 12.2186 4.93317C12.8175 4.18432 13.5979 3.84598 14.525 3.86176C15.4497 3.87755 16.22 4.24634 16.7738 5.01325C16.8133 5.06738 16.873 5.10798 16.9306 5.16099H16.9317ZM12.6269 6.87525C12.6066 7.42336 12.7791 7.89478 13.1107 8.2771C13.5866 8.82521 14.0862 9.35866 14.6242 9.84474C15.3099 10.4639 16.0509 11.021 16.7546 11.621C16.8877 11.7349 16.9768 11.6977 17.0772 11.6289C17.208 11.5387 17.3242 11.4293 17.4471 11.3267C18.002 10.8631 18.5726 10.4177 19.1049 9.92933C19.6576 9.42182 20.2113 8.90416 20.694 8.33236C21.188 7.74704 21.347 7.01735 21.1124 6.27977C20.8102 5.32903 20.1391 4.94558 19.2583 4.94445C18.7102 4.94445 18.2399 5.19482 17.9343 5.6685C17.7426 5.96624 17.5802 6.28541 17.4245 6.60457C17.3298 6.79743 17.2046 6.90795 16.9847 6.92261C16.7467 6.9384 16.5527 6.89555 16.4456 6.6542C16.343 6.423 16.2482 6.18616 16.1208 5.96962C15.62 5.12603 14.8238 4.75273 13.8979 5.03806C13.1919 5.25573 12.5975 5.98428 12.6291 6.87525H12.6269Z" fill="#EB141C"/>
<path d="M20.8667 19.5C20.8667 21.6815 19.0982 23.45 16.9167 23.45C14.7351 23.45 12.9667 21.6815 12.9667 19.5C12.9667 17.3185 14.7351 15.55 16.9167 15.55C19.0982 15.55 20.8667 17.3185 20.8667 19.5Z" stroke="#001B2E" stroke-width="1.1" stroke-linecap="round" stroke-linejoin="round"/>
</svg>
