<svg width="25" height="33" viewBox="0 0 25 33" fill="none" xmlns="http://www.w3.org/2000/svg">
<g clip-path="url(#clip0_4_6776)">
<path d="M13.322 8.39294C13.3157 9.16625 13.0496 9.87616 12.8453 10.5986C12.7584 10.9046 12.6653 11.2099 12.5565 11.5081C12.497 11.6732 12.5213 11.786 12.6379 11.9206C13.3736 12.7706 14.1697 13.5564 15.0612 14.2413C15.1598 14.3172 15.321 14.3509 15.4502 14.3438C16.1898 14.3016 16.9279 14.2249 17.6683 14.1951C17.9321 14.1849 18.206 14.253 18.4643 14.3243C19.139 14.5098 19.4858 14.9614 19.4897 15.622C19.4952 16.3835 19.1202 16.9134 18.4698 17.1349C17.6816 17.4034 17.0116 17.142 16.3714 16.7193C15.9284 16.4266 15.501 16.1112 15.0572 15.82C14.9649 15.7589 14.8201 15.7136 14.7191 15.7402C13.4597 16.0658 12.2051 16.4086 10.9481 16.7389C10.7352 16.7952 10.6068 16.915 10.5074 17.1091C9.88905 18.3129 9.13296 19.4165 8.06457 20.2712C7.37267 20.8254 6.62284 21.1635 5.70942 20.8183C4.51737 20.3675 4.26534 19.134 5.24215 18.3082C5.68673 17.9325 6.20018 17.6233 6.71754 17.3517C7.64035 16.8688 8.59212 16.4422 9.5251 15.9797C9.64172 15.9218 9.76774 15.8067 9.81 15.6893C10.2342 14.5105 10.6459 13.3263 11.0467 12.1389C11.078 12.0466 11.0169 11.9034 10.9614 11.8047C10.5927 11.1512 10.1685 10.525 9.8507 9.84876C9.47422 9.04728 9.52431 8.18552 9.78104 7.35586C10.0785 6.39313 10.8925 5.96813 11.9296 6.15284C12.6403 6.27964 13.0253 6.71952 13.1725 7.39186C13.2445 7.71981 13.2727 8.05794 13.3212 8.39059L13.322 8.39294ZM11.582 10.5047C11.7135 10.0499 11.8748 9.6437 11.9421 9.2226C12.0149 8.77176 12.029 8.30527 12.0133 7.84739C12 7.45369 11.8395 7.34803 11.4482 7.35977C11.15 7.36838 10.9989 7.50614 10.912 7.86461C10.6733 8.84456 11.0138 9.67892 11.582 10.5047ZM12.0305 13.1353C11.7902 13.8601 11.5586 14.5598 11.3191 15.2846C12.1119 15.0756 12.8516 14.8808 13.4738 14.7164C13.0206 14.2194 12.5369 13.6895 12.0305 13.1353ZM8.63282 17.848C8.61403 17.8182 8.59525 17.7885 8.57568 17.758C7.77576 18.2112 6.97584 18.6636 6.1767 19.1191C6.12817 19.1473 6.08825 19.1934 6.04912 19.2357C5.82996 19.4752 5.85735 19.5676 6.172 19.6725C6.43812 19.7617 6.68467 19.7202 6.91948 19.5746C7.62939 19.134 8.1538 18.5125 8.63203 17.8472L8.63282 17.848ZM16.7534 15.3864C16.7455 15.4185 16.7369 15.4498 16.7291 15.4819C16.9154 15.5993 17.0907 15.7425 17.2903 15.8278C17.4954 15.9147 17.7216 15.9671 17.9438 15.9938C18.1121 16.0141 18.2687 15.9084 18.2366 15.7245C18.2201 15.629 18.0785 15.4975 17.9791 15.4842C17.5728 15.4302 17.1619 15.4161 16.7526 15.3864H16.7534Z" fill="#F36D00"/>
<path d="M24.0669 7.8607C24.0669 7.5484 23.9691 7.30028 23.7483 7.08034C21.6029 4.94044 19.4607 2.7974 17.32 0.652011C17.1087 0.440681 16.8699 0.341278 16.5678 0.341278C11.9961 0.345192 7.42508 0.337365 2.85332 0.356149C2.42909 0.357715 1.97043 0.448508 1.58925 0.627747C0.545909 1.1185 0.070026 2.00374 0.0676779 3.14335C0.0621989 5.06019 0.0661125 6.97625 0.0661125 8.8923C0.0661125 15.755 0.0661125 22.617 0.0653298 29.4797C0.0653298 30.2123 0.250047 30.8721 0.74315 31.4365C1.1979 31.9562 1.78727 32.2051 2.44083 32.3413H21.689C21.7172 32.328 21.7438 32.3068 21.7736 32.3029C23.0736 32.1284 24.0685 31.0068 24.0669 29.5423C24.0599 22.3156 24.063 15.0882 24.0669 7.86148V7.8607ZM16.0685 1.67265C16.2289 1.66874 16.3862 1.72979 16.5083 1.85189L17.3936 2.73713V2.73009C18.8236 4.16087 20.245 5.58303 21.6609 6.99894C21.6593 6.99894 21.6577 6.99894 21.6562 6.99894L22.5751 7.91784C22.7293 8.07203 22.7355 8.27631 22.7355 8.48764C22.7355 8.56591 22.7355 8.63714 22.7355 8.70758C22.7355 15.6118 22.7355 22.516 22.7355 29.4202C22.7355 30.4972 22.2228 31.0107 21.1459 31.0107C15.0956 31.0107 9.04527 31.0107 2.99498 31.0107C1.90155 31.0107 1.39592 30.5004 1.39592 29.3983C1.39592 20.6923 1.39592 11.9863 1.39592 3.28032C1.39592 2.17906 1.90155 1.67109 2.99812 1.67109C7.22627 1.67109 11.4544 1.67109 15.6818 1.67109" fill="#F36D00"/>
<path d="M7.43213 26.9837V28.4849H6.60168V24.346H8.25084C8.72672 24.346 9.10085 24.4673 9.37402 24.7099C9.64718 24.9526 9.78337 25.2719 9.78337 25.668C9.78337 26.064 9.64718 26.3826 9.37402 26.6229C9.10085 26.8631 8.72672 26.9837 8.25084 26.9837H7.43213ZM7.43213 26.3442H8.25084C8.48174 26.3442 8.65706 26.2816 8.77681 26.1556C8.89579 26.0296 8.95605 25.8691 8.95605 25.6734C8.95605 25.4778 8.89657 25.3103 8.77838 25.1803C8.66019 25.0504 8.48408 24.9854 8.25084 24.9854H7.43213V26.3442Z" fill="#F36D00"/>
<path d="M10.6271 28.4849V24.346H12.0485C12.5541 24.346 12.9713 24.5072 13.2993 24.8305C13.6272 25.1537 13.7908 25.5678 13.7908 26.0742V26.759C13.7908 27.267 13.6265 27.6811 13.2993 28.0028C12.9713 28.3237 12.5541 28.4849 12.0485 28.4849H10.6271ZM11.4576 24.9854V27.8454H12.0063C12.3037 27.8454 12.5369 27.7453 12.7052 27.5441C12.8743 27.3437 12.958 27.0815 12.958 26.7575V26.0671C12.958 25.747 12.8735 25.4872 12.7052 25.286C12.5369 25.0856 12.3037 24.9847 12.0063 24.9847H11.4576V24.9854Z" fill="#F36D00"/>
<path d="M17.2394 26.7653H15.5057V28.4849H14.6752V24.346H17.529V24.9854H15.5049V26.1251H17.2386V26.7645L17.2394 26.7653Z" fill="#F36D00"/>
</g>
<defs>
<clipPath id="clip0_4_6776">
<rect width="24.0023" height="32" fill="white" transform="translate(0.0645752 0.341278)"/>
</clipPath>
</defs>
</svg>
