<svg width="24" height="25" viewBox="0 0 24 25" fill="none" xmlns="http://www.w3.org/2000/svg">
<g clip-path="url(#clip0_4_6756)">
<path d="M11.16 22.747C10.2713 23.3192 9.21351 23.57 8.1625 23.4578C7.1115 23.3455 6.13058 22.8769 5.38283 22.1298L4.7314 21.4784C4.44246 21.1864 4.2804 20.7921 4.2804 20.3813C4.2804 19.9704 4.44246 19.5762 4.7314 19.2841L7.47425 16.5584C7.7634 16.2705 8.15481 16.1089 8.56283 16.1089C8.97085 16.1089 9.36225 16.2705 9.6514 16.5584C9.94346 16.8474 10.3377 17.0094 10.7485 17.0094C11.1594 17.0094 11.5536 16.8474 11.8457 16.5584L16.2171 12.187C16.506 11.8949 16.6681 11.5007 16.6681 11.0898C16.6681 10.679 16.506 10.2848 16.2171 9.99271C15.9292 9.70356 15.7676 9.31215 15.7676 8.90413C15.7676 8.49611 15.9292 8.10471 16.2171 7.81556L18.8571 5.07271C19.1492 4.78377 19.5434 4.6217 19.9543 4.6217C20.3651 4.6217 20.7593 4.78377 21.0514 5.07271L21.7028 5.72413C22.4633 6.46134 22.9479 7.43705 23.0758 8.48842C23.2037 9.5398 22.9672 10.6032 22.4057 11.5013C19.4165 15.9392 15.5979 19.7578 11.16 22.747Z" stroke="#01295F" stroke-width="1.71429" stroke-linecap="round" stroke-linejoin="round"/>
<path d="M12 1.19843C10.5367 1.19843 9.0877 1.48664 7.73579 2.04662C6.38387 2.60661 5.15549 3.42738 4.12078 4.46209C2.03109 6.55178 0.857117 9.38601 0.857117 12.3413" stroke="#01295F" stroke-width="1.71429" stroke-linecap="round" stroke-linejoin="round"/>
<path d="M12 5.48413C10.1813 5.48413 8.4372 6.20658 7.15123 7.49254C5.86527 8.7785 5.14282 10.5226 5.14282 12.3413" stroke="#01295F" stroke-width="1.71429" stroke-linecap="round" stroke-linejoin="round"/>
</g>
<defs>
<clipPath id="clip0_4_6756">
<rect width="24" height="24" fill="white" transform="translate(0 0.341278)"/>
</clipPath>
</defs>
</svg>
