<svg width="19" height="22" viewBox="0 0 19 22" fill="none" xmlns="http://www.w3.org/2000/svg">
<path d="M9.66968 14.5052C10.0819 13.9553 10.5812 13.5391 11.26 13.3622C12.1466 13.1304 12.9892 13.2576 13.7426 13.745C14.6417 14.3262 15.0381 15.1899 15.0426 16.2035C15.046 16.9874 14.7388 17.685 14.2181 18.2943C13.5088 19.1245 12.6617 19.8125 11.7829 20.4713C11.243 20.8767 10.7156 21.2984 10.1949 21.7264C9.77246 22.0747 9.55334 22.0974 9.11849 21.7545C8.34367 21.1442 7.5711 20.5306 6.8087 19.9063C6.36368 19.5418 5.92318 19.1688 5.51318 18.7698C4.91117 18.1832 4.41984 17.5093 4.30351 16.6801C4.18152 15.8153 4.3532 14.999 4.94957 14.2874C5.54932 13.5714 6.33093 13.2479 7.25936 13.263C8.18554 13.2781 8.95697 13.6307 9.51155 14.3639C9.55108 14.4157 9.61095 14.4545 9.66855 14.5052H9.66968ZM5.35844 16.1442C5.33811 16.6682 5.51092 17.1189 5.84299 17.4845C6.31963 18.0085 6.81999 18.5185 7.35876 18.9833C8.04548 19.5753 8.78755 20.1079 9.49235 20.6816C9.62563 20.7905 9.71486 20.7549 9.81538 20.6891C9.9464 20.6029 10.0627 20.4983 10.1859 20.4001C10.7416 19.957 11.3131 19.5311 11.8462 19.0642C12.3996 18.5789 12.9542 18.084 13.4376 17.5373C13.9323 16.9777 14.0916 16.28 13.8567 15.5749C13.554 14.6659 12.8819 14.2992 11.9998 14.2982C11.4509 14.2982 10.9799 14.5375 10.6738 14.9904C10.4818 15.2751 10.3191 15.5802 10.1633 15.8854C10.0684 16.0698 9.94301 16.1755 9.72276 16.1895C9.48444 16.2046 9.29017 16.1636 9.18287 15.9328C9.08009 15.7118 8.98521 15.4854 8.85758 15.2783C8.35609 14.4718 7.55867 14.1149 6.63137 14.3877C5.92431 14.5958 5.32908 15.2923 5.3607 16.1442H5.35844Z" fill="#EB141C"/>
<g clip-path="url(#clip0_380_1477)">
<path d="M17.287 12.5079C16.2822 11.1606 14.7596 10.2697 12.7423 9.84278C14.1475 8.86591 15.0698 7.24128 15.0698 5.40354C15.0698 2.42401 12.6458 0 9.66631 0C6.68678 0 4.26347 2.42401 4.26347 5.40354C4.26347 7.24058 5.18584 8.86521 6.59105 9.84208C4.57303 10.269 3.05042 11.1599 2.0456 12.5079C-0.140131 15.4392 1.00025 19.3851 1.04986 19.5514C1.13092 19.8246 1.38108 20.0007 1.6522 20.0007C1.71159 20.0007 1.77169 19.9923 1.83108 19.9748C2.16369 19.8763 2.35375 19.5262 2.25593 19.1936C2.24545 19.1587 1.24901 15.6733 3.05881 13.2541C4.27326 11.6309 6.49602 10.8078 9.66561 10.8078C12.8352 10.8078 15.0594 11.6309 16.2745 13.2548C18.085 15.674 17.09 19.1573 17.0802 19.1915C16.981 19.5241 17.171 19.8749 17.5036 19.9734C17.8362 20.0727 18.187 19.8826 18.2856 19.55C18.3352 19.3837 19.4735 15.4399 17.2877 12.5093L17.287 12.5079ZM5.52125 5.40354C5.52125 3.11788 7.38066 1.25777 9.66701 1.25777C11.9534 1.25777 13.8128 3.11718 13.8128 5.40354C13.8128 7.68989 11.9534 9.5493 9.66701 9.5493C7.38066 9.5493 5.52125 7.68989 5.52125 5.40354Z" fill="#001B2E"/>
</g>
<defs>
<clipPath id="clip0_380_1477">
<rect width="17.917" height="20" fill="white" transform="translate(0.70813)"/>
</clipPath>
</defs>
</svg>
