<svg width="19" height="20" viewBox="0 0 19 20" fill="none" xmlns="http://www.w3.org/2000/svg">
<g clip-path="url(#clip0_380_842)">
<path d="M17.2871 12.5079C16.2823 11.1606 14.7597 10.2697 12.7423 9.84278C14.1475 8.86591 15.0699 7.24128 15.0699 5.40354C15.0699 2.42401 12.6459 0 9.66637 0C6.68685 0 4.26354 2.42401 4.26354 5.40354C4.26354 7.24058 5.1859 8.86521 6.59112 9.84208C4.57309 10.269 3.05048 11.1599 2.04566 12.5079C-0.14007 15.4392 1.00031 19.3851 1.04992 19.5514C1.13098 19.8246 1.38114 20.0007 1.65226 20.0007C1.71165 20.0007 1.77175 19.9923 1.83114 19.9748C2.16375 19.8763 2.35382 19.5262 2.25599 19.1936C2.24551 19.1587 1.24907 15.6733 3.05887 13.2541C4.27332 11.6309 6.49608 10.8078 9.66567 10.8078C12.8353 10.8078 15.0594 11.6309 16.2746 13.2548C18.0851 15.674 17.09 19.1573 17.0802 19.1915C16.981 19.5241 17.1711 19.8749 17.5037 19.9734C17.8363 20.0727 18.1871 19.8826 18.2856 19.55C18.3352 19.3837 19.4735 15.4399 17.2878 12.5093L17.2871 12.5079ZM5.52131 5.40354C5.52131 3.11788 7.38072 1.25777 9.66707 1.25777C11.9534 1.25777 13.8128 3.11718 13.8128 5.40354C13.8128 7.68989 11.9534 9.5493 9.66707 9.5493C7.38072 9.5493 5.52131 7.68989 5.52131 5.40354Z" fill="#445979"/>
</g>
<defs>
<clipPath id="clip0_380_842">
<rect width="17.917" height="20" fill="white" transform="translate(0.708191)"/>
</clipPath>
</defs>
</svg>
