<svg width="23" height="22" viewBox="0 0 23 22" fill="none" xmlns="http://www.w3.org/2000/svg">
<g clip-path="url(#clip0_380_1553)">
<path d="M16.8264 22C16.5819 21.8496 16.3833 21.6763 16.3942 21.348C16.4069 20.9801 16.6565 20.7133 17.0278 20.7121C18.0304 20.7093 19.033 20.6943 20.0351 20.7167C20.6681 20.7311 21.2133 20.2277 21.2104 19.5391C21.2064 18.5296 21.2093 17.5201 21.2104 16.5112C21.2104 16.1978 21.4474 15.9258 21.7585 15.9034C22.0678 15.881 22.4018 16.0715 22.4541 16.386C22.4747 16.51 22.4954 16.6357 22.496 16.7602C22.4994 17.6693 22.5057 18.5789 22.4948 19.4874C22.4885 19.9873 22.4047 20.478 22.1126 20.8998C21.7195 21.4674 21.1989 21.8525 20.4994 21.9604C20.477 21.9638 20.4569 21.9862 20.4362 22H16.8269H16.8264Z" fill="#001B2E"/>
<path d="M0.498291 16.3293C0.620532 16.2031 0.719818 16.0263 0.869032 15.9597C1.28683 15.7732 1.78728 16.063 1.78785 16.6266C1.78843 17.6573 1.78785 18.6875 1.79187 19.7182C1.79359 20.2164 2.27969 20.703 2.77152 20.7059C3.79536 20.7116 4.81863 20.7019 5.84248 20.7185C6.01752 20.7214 6.21781 20.7891 6.35956 20.8913C6.72973 21.157 6.63504 21.7142 6.23962 21.9168C6.19887 21.9375 6.16501 21.9714 6.12828 21.9995H2.47596C2.46219 21.9857 2.45014 21.9627 2.43464 21.9599C1.64438 21.8124 1.08826 21.3556 0.729574 20.652C0.628567 20.4551 0.574046 20.2342 0.498291 20.0241C0.498291 18.7925 0.498291 17.5609 0.498291 16.3293Z" fill="#001B2E"/>
<path d="M0.498291 1.98055C0.598724 1.72058 0.666445 1.44108 0.806477 1.20406C1.1887 0.559569 1.74079 0.122829 2.50753 0.0539607C3.05847 0.00517891 3.61573 0.0132136 4.16955 0.00632672C4.73484 -0.000560115 5.30014 0.00345721 5.86543 0.00517892C6.25052 0.00632672 6.46688 0.17448 6.55928 0.537187C6.65168 0.899894 6.34579 1.2913 5.96242 1.29244C4.93915 1.29474 3.91646 1.2913 2.89319 1.29417C2.352 1.29589 1.96576 1.58858 1.81253 2.10566C1.79703 2.15789 1.79187 2.21528 1.79187 2.2698C1.78957 3.29996 1.78785 4.33011 1.78785 5.35969C1.78785 5.62312 1.69775 5.84235 1.48196 5.9973C1.17837 6.21538 0.773764 6.1161 0.582081 5.78438C0.559125 5.74478 0.526412 5.71092 0.498291 5.67477C0.498291 4.44317 0.498291 3.21158 0.498291 1.97998L0.498291 1.98055Z" fill="#001B2E"/>
<path d="M3.02643 11.6467C0.121143 11.6467 4.00865 11.6467 1.10336 11.6467C0.761277 11.6467 0.541992 11.3919 0.541992 10.9994C0.541992 10.6126 0.765176 10.3589 1.11018 10.3589C3.90283 10.3589 -0.86644 10.3589 4.93828 10.3589C5.26623 10.3589 5.44995 10.5276 5.5284 10.8903C5.60442 11.2427 5.35054 11.6398 5.0411 11.6456C4.79209 11.6502 4.54259 11.6473 4.29358 11.6473C1.6071 11.6473 5.71291 11.6467 3.02643 11.6467Z" fill="#001B2E"/>
<path d="M19.9827 11.6467C17.0774 11.6467 20.9649 11.6467 18.0597 11.6467C17.7176 11.6467 17.4983 11.3919 17.4983 10.9994C17.4983 10.6126 17.7215 10.3589 18.0665 10.3589C20.8591 10.3589 16.0899 10.3589 21.8946 10.3589C22.2225 10.3589 22.4062 10.5276 22.4847 10.8903C22.5607 11.2427 22.3068 11.6398 21.9974 11.6456C21.7484 11.6502 21.4989 11.6473 21.2499 11.6473C18.5634 11.6473 22.6692 11.6467 19.9827 11.6467Z" fill="#001B2E"/>
<path d="M21.2092 3.96171C21.2092 3.46758 21.2115 2.97402 21.2086 2.47989C21.204 1.76079 20.7397 1.29822 20.0247 1.29478C19.0221 1.29019 18.02 1.29363 17.0174 1.29248C16.6834 1.29248 16.4217 1.02677 16.3936 0.712267C16.3563 0.292744 16.6782 0.00808833 17.0002 0.00694053C18.0315 0.00349711 19.0622 -0.00740705 20.093 0.00923614C20.7323 0.0195664 21.3217 0.223876 21.7756 0.688163C22.167 1.08875 22.446 1.56337 22.4546 2.15104C22.4706 3.22137 22.4844 4.29227 22.4976 5.3626C22.5016 5.67882 22.3731 5.92216 22.0787 6.05645C21.6672 6.24469 21.2201 5.92675 21.2132 5.52904C21.204 5.00678 21.2109 4.48396 21.2109 3.96113C21.2109 3.96113 21.2098 3.96113 21.2092 3.96113V3.96171Z" fill="#001B2E"/>
<path d="M3.97965 15.714C3.97965 15.3415 3.97793 14.9696 3.98023 14.5971C3.98195 14.3113 4.2316 14.0341 4.5042 14.0089C4.87609 13.9745 5.16304 14.1644 5.22387 14.4933C5.24798 14.6235 5.2652 14.7567 5.26577 14.8887C5.27036 15.4758 5.28184 16.0635 5.26175 16.6494C5.25142 16.9519 5.51943 17.2021 5.79893 17.194C6.43596 17.1757 7.07356 17.1872 7.7106 17.1889C8.0865 17.19 8.3086 17.3387 8.41707 17.6532C8.55136 18.0417 8.26613 18.4538 7.85292 18.4681C7.07356 18.4962 6.29019 18.5083 5.51255 18.4652C5.0121 18.4377 4.62013 18.1393 4.31711 17.7352C4.06631 17.4012 3.96473 17.0288 3.97678 16.6156C3.98539 16.3154 3.97851 16.0141 3.97851 15.7134H3.97908L3.97965 15.714Z" fill="#001B2E"/>
<path d="M6.79698 4.73011C6.48191 4.73011 6.16683 4.73757 5.85176 4.72839C5.48446 4.71749 5.25203 4.94131 5.26294 5.30344C5.28073 5.92555 5.2704 6.54881 5.26695 7.1715C5.26523 7.44066 5.18489 7.67481 4.93983 7.82747C4.74356 7.94971 4.52949 7.9566 4.33781 7.86133C4.12489 7.75516 3.97797 7.57552 3.97854 7.31096C3.98026 6.55914 3.95214 5.80676 3.98715 5.05666C4.01642 4.43111 4.36994 3.976 4.90367 3.66151C5.19464 3.48991 5.51718 3.44285 5.84832 3.4417C6.471 3.43998 7.09426 3.43539 7.71695 3.44285C8.19386 3.44859 8.46359 3.73841 8.44925 4.11661C8.43719 4.42881 8.14393 4.72495 7.82771 4.72897C7.48394 4.73298 7.14017 4.73011 6.79698 4.73011Z" fill="#001B2E"/>
<path d="M16.2084 18.4773C15.8652 18.4773 15.5203 18.4584 15.1788 18.4831C14.8913 18.5037 14.5074 18.2105 14.5143 17.834C14.5206 17.4874 14.7794 17.1935 15.1783 17.1906C15.8147 17.1855 16.4517 17.1769 17.0876 17.1935C17.4658 17.2033 17.7275 16.9978 17.7287 16.5496C17.7304 15.8988 17.7287 15.248 17.7304 14.5972C17.7316 14.3119 17.9818 14.0342 18.2532 14.0089C18.6251 13.9745 18.9333 14.1622 18.9695 14.4916C19.0102 14.8635 19.0154 15.2405 19.0148 15.6153C19.0142 16.0767 19.024 16.5416 18.9683 16.9978C18.9195 17.3932 18.7164 17.7313 18.4088 18.009C17.9841 18.3918 17.4865 18.4997 16.9378 18.4791C16.6951 18.4699 16.4517 18.4773 16.2084 18.4773Z" fill="#001B2E"/>
<path d="M17.7292 6.33297C17.7292 6.01101 17.7424 5.6879 17.7264 5.36709C17.7034 4.90625 17.5651 4.749 17.0836 4.73523C16.4471 4.71686 15.809 4.71686 15.1725 4.73637C14.8809 4.74556 14.5005 4.44885 14.5148 4.07925C14.5286 3.73032 14.7828 3.44911 15.1656 3.44394C15.8239 3.43591 16.4827 3.43419 17.1416 3.44394C17.6437 3.4514 18.1109 3.59603 18.4707 3.95644C18.7594 4.24569 18.9631 4.59806 18.9746 5.02505C18.9941 5.73726 19.009 6.44947 19.0165 7.16226C19.0194 7.43773 18.939 7.68451 18.6813 7.83488C18.4845 7.94966 18.2676 7.95941 18.0776 7.85783C17.8767 7.75051 17.7287 7.57719 17.7304 7.32066C17.7327 6.99124 17.7304 6.66239 17.7304 6.33297H17.7298H17.7292Z" fill="#001B2E"/>
<path d="M11.5015 8.2552C11.9137 7.70528 12.413 7.28906 13.0918 7.11222C13.9784 6.88039 14.821 7.00763 15.5744 7.49501C16.4734 8.0762 16.8699 8.9399 16.8744 9.95349C16.8778 10.7374 16.5706 11.435 16.0499 12.0443C15.3406 12.8745 14.4935 13.5625 13.6147 14.2213C13.0748 14.6267 12.5474 15.0484 12.0267 15.4764C11.6042 15.8247 11.3851 15.8474 10.9503 15.5045C10.1755 14.8942 9.40289 14.2806 8.64049 13.6563C8.19547 13.2918 7.75497 12.9188 7.34497 12.5198C6.74295 11.9332 6.25163 11.2593 6.13529 10.4301C6.01331 9.56531 6.18499 8.74905 6.78136 8.03739C7.38111 7.32141 8.16271 6.99793 9.09115 7.01302C10.0173 7.02812 10.7888 7.38071 11.3433 8.11394C11.3829 8.1657 11.4427 8.20452 11.5003 8.2552H11.5015ZM7.19023 9.89418C7.1699 10.4182 7.34271 10.8689 7.67478 11.2345C8.15142 11.7585 8.65178 12.2685 9.19054 12.7333C9.87727 13.3253 10.6193 13.8579 11.3241 14.4316C11.4574 14.5405 11.5466 14.5049 11.6472 14.4391C11.7782 14.3529 11.8945 14.2483 12.0176 14.1501C12.5733 13.707 13.1449 13.2811 13.678 12.8142C14.2314 12.3289 14.786 11.834 15.2694 11.2873C15.7641 10.7277 15.9234 10.03 15.6885 9.32485C15.3858 8.41586 14.7137 8.04925 13.8316 8.04817C13.2827 8.04817 12.8117 8.28755 12.5056 8.74042C12.3136 9.02509 12.1509 9.33024 11.995 9.63539C11.9002 9.81978 11.7748 9.92545 11.5546 9.93947C11.3162 9.95456 11.122 9.91359 11.0147 9.68284C10.9119 9.46179 10.817 9.23535 10.6894 9.02832C10.1879 8.22177 9.39046 7.86486 8.46316 8.13767C7.7561 8.34577 7.16086 9.04234 7.19249 9.89418H7.19023Z" fill="red"/>
</g>
<defs>
<clipPath id="clip0_380_1553">
<rect width="22.0034" height="22" fill="white" transform="translate(0.498291)"/>
</clipPath>
</defs>
</svg>
