<svg width="25" height="24" viewBox="0 0 25 24" fill="none" xmlns="http://www.w3.org/2000/svg">
<g clip-path="url(#clip0_4_5902)">
<path d="M22.237 15.2205C22.237 14.5053 22.2351 13.8306 22.237 13.1568C22.2379 12.7733 22.5792 12.3888 22.9608 12.3763C23.3673 12.3638 23.7566 12.5705 23.8431 13.0011C23.8749 13.1578 23.8941 13.3192 23.8941 13.4788C23.8979 15.1743 23.9056 16.8699 23.8931 18.5654C23.8845 19.7006 23.6259 20.7723 22.9579 21.7143C22.2187 22.7562 21.245 23.4598 19.9993 23.8001C19.4668 23.9462 18.9363 23.999 18.3903 23.999C13.8823 23.9961 9.37528 24.0058 4.86729 23.9894C4.12429 23.9865 3.42358 23.7155 2.78054 23.3531C1.73669 22.7658 0.963888 21.9152 0.496749 20.8069C0.219926 20.1504 0.0690186 19.468 0.0728634 18.7432C0.0872813 15.6982 0.0795918 12.6531 0.0776694 9.60807C0.0776694 8.84777 0.0363381 8.08458 0.0738246 7.3262C0.116117 6.46497 0.398707 5.6643 0.842778 4.9213C1.32049 4.12255 1.97122 3.49393 2.7815 3.05274C3.37552 2.72978 4.01759 2.47795 4.70485 2.46257C6.32638 2.427 7.94887 2.41739 9.57136 2.40586C10.8084 2.39817 12.0455 2.40009 13.2825 2.40682C13.5911 2.40874 13.8698 2.48756 14.0669 2.76823C14.2572 3.03928 14.2735 3.31899 14.1332 3.59485C13.9832 3.88802 13.7314 4.06391 13.3863 4.06391C10.7219 4.06391 8.05652 4.06584 5.3921 4.06391C4.34152 4.06391 3.43896 4.42821 2.71518 5.18563C2.19806 5.72774 1.86933 6.3775 1.7809 7.13204C1.75591 7.34158 1.74149 7.554 1.74149 7.76546C1.74053 11.468 1.73669 15.1705 1.7463 18.873C1.75014 20.4013 2.87185 21.8565 4.45494 22.2256C4.71638 22.2862 4.98936 22.2987 5.25561 22.3362C5.41325 22.3583 5.49591 22.29 5.57953 22.1545C6.2466 21.0645 6.88675 19.9563 7.60957 18.9047C8.23723 17.9906 8.93986 17.1246 9.6521 16.273C10.1346 15.6963 10.6642 15.1513 11.2208 14.6466C12.2944 13.672 13.5007 12.8992 14.9271 12.5512C15.5404 12.4013 16.168 12.3638 16.8168 12.4051C18.3701 12.5051 19.6677 13.176 20.8798 14.0642C21.345 14.4054 21.7612 14.8129 22.2331 15.2195L22.237 15.2205ZM7.33563 22.3371H7.69992C11.2121 22.3371 14.7243 22.3381 18.2365 22.3352C18.5518 22.3352 18.8699 22.3237 19.1823 22.2843C20.1502 22.1622 20.9057 21.646 21.493 20.9069C22.2168 19.9966 22.2764 18.9009 22.2312 17.7945C22.2283 17.7263 22.1793 17.6504 22.1322 17.5965C21.8391 17.2611 21.5651 16.9045 21.2383 16.6046C20.6943 16.1048 20.1426 15.6049 19.5447 15.1714C18.4653 14.389 17.2792 13.9257 15.8979 14.0747C15.0896 14.1622 14.3773 14.4669 13.6949 14.8667C12.8269 15.3762 12.0772 16.0413 11.414 16.7891C10.7546 17.5321 10.1116 18.2972 9.52811 19.0998C8.77165 20.1399 8.08151 21.227 7.33371 22.3362L7.33563 22.3371Z" fill="#F36D00"/>
<path d="M19.7435 2.87493C19.2331 3.37283 18.7477 3.85247 18.2556 4.32537C17.9836 4.58778 17.7298 4.88382 17.4174 5.08567C17.0157 5.34616 16.6302 5.22024 16.3918 4.93285C16.066 4.54068 16.1093 4.09372 16.4851 3.71598C17.4184 2.77785 18.3565 1.84357 19.2918 0.907374C19.5176 0.681494 19.7426 0.45273 19.9713 0.228772C20.2827 -0.0759255 20.8114 -0.0807315 21.119 0.22685C22.3205 1.42353 23.5191 2.62214 24.7167 3.82267C25.0195 4.12544 25.0099 4.6243 24.7033 4.94438C24.3784 5.28368 23.8728 5.30963 23.5527 4.99148C22.8482 4.29077 22.1494 3.58525 21.4045 2.83745V3.15752C21.4045 5.2856 21.4073 7.41368 21.4016 9.54176C21.4016 9.90028 21.3074 10.23 20.9489 10.4107C20.3587 10.7086 19.7406 10.3299 19.7416 9.70901C19.7454 7.52037 19.7426 5.33174 19.7416 3.14407C19.7416 3.0614 19.7416 2.97778 19.7416 2.87397L19.7435 2.87493Z" fill="#F36D00"/>
<path d="M7.50561 6.86869C9.28381 6.81486 10.5853 8.2432 10.5949 9.84646C10.6045 11.5439 9.27901 12.9559 7.45467 12.9309C5.84275 12.9088 4.50477 11.5699 4.48939 9.88683C4.47401 8.29414 5.81295 6.80621 7.50657 6.86869H7.50561ZM7.54406 8.52963C6.69629 8.47869 6.14937 9.17747 6.15321 9.87626C6.15706 10.6404 6.72993 11.269 7.49696 11.269C8.30244 11.269 8.91856 10.7173 8.93394 9.88395C8.9474 9.12461 8.31493 8.48157 7.54406 8.53059V8.52963Z" fill="#F36D00"/>
</g>
<defs>
<clipPath id="clip0_4_5902">
<rect width="24.8795" height="24" fill="white" transform="translate(0.0603027)"/>
</clipPath>
</defs>
</svg>
