<svg width="22" height="21" viewBox="0 0 22 21" fill="none" xmlns="http://www.w3.org/2000/svg">
<g clip-path="url(#clip0_380_849)">
<path d="M19.5405 0.887244C19.2537 0.869034 18.9468 0.86084 18.5772 0.86084C18.3004 0.86084 18.0181 0.865392 17.7441 0.869945C17.4782 0.874497 17.2032 0.87905 16.9328 0.87905C16.5868 0.87905 16.2317 1.04476 15.9577 1.33248C15.69 1.61382 15.5398 1.9762 15.5561 2.30125C15.5707 2.59534 15.5671 2.89216 15.5634 3.17988C15.5616 3.31008 15.5598 3.43937 15.5598 3.56957V3.90554C15.5607 4.23059 15.5616 4.56657 15.5598 4.89799C15.558 5.24853 15.7073 5.59452 15.9813 5.8704C16.2572 6.1481 16.6269 6.31472 16.972 6.31563H17.0867C17.3134 6.31563 17.5392 6.31381 17.7659 6.3129C17.9936 6.31108 18.2203 6.31017 18.4479 6.31017C18.843 6.31017 19.1645 6.31472 19.4613 6.32565C19.4749 6.32565 19.4895 6.32565 19.5032 6.32565C20.1879 6.32565 20.9681 5.72654 20.9946 4.86703C21.02 4.02482 21.0392 3.199 20.9918 2.36589C20.9417 1.49364 20.3991 0.940964 19.5396 0.888155L19.5405 0.887244ZM19.7736 5.08282C19.6716 5.18571 19.5277 5.23669 19.3338 5.23669H19.3265C18.9951 5.23487 18.6027 5.23214 18.2048 5.23214C17.8333 5.23214 17.501 5.23396 17.1868 5.23851H17.1723C16.992 5.23851 16.86 5.19299 16.7689 5.09921C16.677 5.00452 16.636 4.87067 16.6415 4.68857C16.6497 4.42999 16.6478 4.16504 16.646 3.90919C16.646 3.79629 16.6442 3.68429 16.6442 3.57139C16.6442 3.45849 16.6442 3.35469 16.6442 3.24634C16.6442 2.99687 16.6451 2.73829 16.6424 2.48517C16.6405 2.30944 16.6833 2.18015 16.7735 2.0891C16.8627 1.99896 16.9874 1.95526 17.155 1.95526H17.1686C17.4873 1.95981 17.8242 1.96163 18.1993 1.96163C18.6072 1.96163 19.006 1.9589 19.3083 1.95708H19.3165C19.515 1.95708 19.6625 2.00898 19.7672 2.1146C19.8746 2.22294 19.9256 2.37773 19.9229 2.58805C19.9147 3.31554 19.9147 3.98203 19.9229 4.62484C19.9256 4.82879 19.8765 4.97902 19.7727 5.08373L19.7736 5.08282Z" fill="#001B2E"/>
<path d="M1.03918 2.16374C1.03371 2.49061 1.03462 2.82385 1.03644 3.14617C1.03644 3.23449 1.03644 3.32281 1.03735 3.41204L1.03918 3.58958C1.03918 3.74073 1.03827 3.89187 1.03735 4.04301C1.03553 4.37261 1.0328 4.71405 1.04191 5.04729C1.05739 5.65368 1.74572 6.31926 2.35667 6.31926H2.36122C2.53694 6.31835 2.71176 6.31652 2.88749 6.3147C3.18522 6.31197 3.49388 6.30924 3.79707 6.30924C4.20134 6.30924 4.5364 6.31379 4.85234 6.32472C4.86873 6.32472 4.88603 6.32472 4.90242 6.32472C5.73826 6.32472 6.43661 5.6464 6.46028 4.81329C6.4794 4.12951 6.45118 3.43025 6.42386 2.75375C6.41567 2.55435 6.40747 2.35404 6.4011 2.15464C6.37743 1.47176 5.80199 0.928197 5.06176 0.889956C4.63655 0.868104 4.20225 0.857178 3.77158 0.857178C3.28173 0.857178 2.7846 0.871746 2.29384 0.899971C1.62463 0.938212 1.05101 1.51729 1.03918 2.16374ZM3.05684 1.95706H3.38826H3.71968H3.74062C3.84351 1.95706 3.94549 1.95706 4.04837 1.95797C4.15035 1.95797 4.25232 1.95888 4.35339 1.95888C4.51455 1.95888 4.64748 1.95706 4.76949 1.95433C4.78041 1.95433 4.79043 1.95433 4.80135 1.95433C4.99347 1.95433 5.13642 2.00441 5.23839 2.10638C5.34037 2.20927 5.38953 2.35404 5.38862 2.54888C5.38407 3.14162 5.38498 3.74528 5.3868 4.328V4.6576C5.38771 4.8397 5.33764 4.98355 5.23748 5.08371C5.13733 5.18386 4.99438 5.23485 4.81228 5.23485C4.42168 5.23485 4.03471 5.23303 3.64866 5.23303C3.30996 5.23303 2.97125 5.23303 2.63255 5.23576H2.62708C2.45591 5.23576 2.32844 5.19206 2.23921 5.10101C2.14816 5.00905 2.10537 4.87976 2.10719 4.70403C2.11721 3.80537 2.11629 3.1143 2.10537 2.46239C2.10264 2.29576 2.1427 2.17194 2.22829 2.08544C2.31296 1.99985 2.43315 1.95797 2.59613 1.95797H3.05775L3.05684 1.95706Z" fill="#001B2E"/>
<path d="M13.2056 7.42974H13.2165H13.2238C13.4605 7.42064 13.6517 7.22852 13.6708 6.98269C13.6854 6.79331 13.6462 6.64672 13.5543 6.54565C13.4505 6.43184 13.2766 6.37266 13.0371 6.36901C12.4863 6.36082 11.9054 6.35718 11.2097 6.35718C10.6398 6.35718 10.0598 6.35991 9.49983 6.36264C9.26128 6.36355 9.02182 6.36446 8.78327 6.36537C8.54927 6.36537 8.38538 6.47281 8.29524 6.68223C8.2133 6.87161 8.21967 7.0619 8.31254 7.20576C8.40632 7.35053 8.58023 7.43612 8.79147 7.44067C9.04549 7.44613 9.31864 7.44795 9.65098 7.44795C9.86858 7.44795 10.0862 7.44704 10.3056 7.44613C10.5269 7.44522 10.749 7.44431 10.973 7.44431H11.1551V9.17153L10.994 9.18974C10.8938 9.20157 10.7973 9.21068 10.7017 9.22069C10.4968 9.24164 10.3038 9.26076 10.1153 9.29536C9.87587 9.33906 9.65462 9.63406 9.6701 9.81434C9.69741 10.1276 9.93141 10.3552 10.2264 10.357C10.7618 10.3597 11.3436 10.3606 12.0583 10.3606C12.4016 10.3606 12.7439 10.3606 13.0872 10.3606C13.4213 10.3606 13.6663 10.1394 13.669 9.83437C13.6726 9.47108 13.4851 9.28898 13.0954 9.27806C13.0262 9.27623 12.9515 9.27532 12.8605 9.27532C12.7949 9.27532 12.7294 9.27532 12.6611 9.27623C12.5882 9.27623 12.5145 9.27714 12.4371 9.27714H12.255V8.3803C12.255 7.95419 12.255 7.74114 12.4034 7.59181C12.5509 7.4434 12.7667 7.43976 13.1974 7.43066H13.2065L13.2056 7.42974Z" fill="#001B2E"/>
<path d="M20.3973 17.336C20.3909 17.336 20.3845 17.336 20.3791 17.336C20.0932 17.3442 19.9265 17.5199 19.9229 17.8186C19.9211 17.9943 19.9211 18.1709 19.922 18.3421C19.922 18.4168 19.922 18.4905 19.922 18.5624V19.7445H18.0564V18.5624C18.0564 18.4723 18.06 18.384 18.0637 18.2993C18.0709 18.1181 18.0782 17.9469 18.0473 17.794C18.0245 17.6793 17.9271 17.5308 17.8105 17.4334C17.724 17.3615 17.6275 17.3251 17.5228 17.3251C17.3771 17.3251 17.226 17.3979 17.1186 17.519C17.0139 17.6383 16.9656 17.784 16.9838 17.9287C17.0038 18.0853 16.9984 18.2392 16.9938 18.3885C16.992 18.4532 16.9893 18.5151 16.9893 18.5752V19.7573H15.1929V18.5752C15.1929 18.4905 15.1938 18.4095 15.1956 18.3303C15.1983 18.17 15.201 18.018 15.1901 17.8723C15.1701 17.59 14.9552 17.3642 14.6793 17.336C14.6475 17.3324 14.6165 17.3314 14.5874 17.3314C14.327 17.3314 14.1804 17.4525 14.1394 17.7011C14.0711 18.119 14.0484 19.5879 14.0666 20.1761C14.0811 20.6341 14.2887 20.8572 14.7003 20.8572C14.7094 20.8572 14.7176 20.8572 14.7267 20.8572C14.998 20.8508 15.2894 20.8481 15.6436 20.8481C15.8721 20.8481 16.1006 20.849 16.3282 20.8508C16.5559 20.8517 16.7835 20.8535 17.0111 20.8535H17.0166C17.3307 20.8535 17.6448 20.8535 17.9589 20.8535C18.2731 20.8535 18.5872 20.8535 18.9013 20.8535C19.3948 20.8535 19.8883 20.8535 20.3818 20.8508C20.6995 20.8499 20.9818 20.6204 20.9864 20.3609C20.9973 19.801 20.9973 18.2911 20.9864 17.8022C20.9809 17.5536 20.705 17.336 20.3954 17.336H20.3973Z" fill="#001B2E"/>
<path d="M8.89313 1.95621C9.39299 1.95621 9.89377 1.95621 10.3964 1.95621H11.4179H12.465H12.6471V2.13831C12.6471 2.36958 12.6471 2.59811 12.648 2.823C12.6498 3.35291 12.6508 3.85369 12.6444 4.36266C12.6426 4.4792 12.699 4.60303 12.7973 4.70318C12.9066 4.81426 13.0514 4.88073 13.1843 4.88073C13.2544 4.88073 13.3182 4.86252 13.3746 4.82519C13.6305 4.65766 13.7406 4.46463 13.7434 4.18056C13.7506 3.26824 13.7479 2.35228 13.7443 1.49277C13.7424 1.10489 13.5166 0.880001 13.1242 0.876359C12.5178 0.870896 11.8732 0.868164 11.1539 0.868164C10.369 0.868164 9.5933 0.870896 8.87128 0.874538C8.6819 0.874538 8.51527 0.939183 8.40237 1.05482C8.31041 1.14951 8.26307 1.26969 8.2658 1.40172C8.27308 1.74771 8.50799 1.95439 8.89313 1.9553V1.95621Z" fill="#001B2E"/>
<path d="M16.1489 15.4958H16.168C16.4693 15.4895 16.7989 15.4867 17.2041 15.4867C17.4217 15.4867 17.6393 15.4867 17.8569 15.4885C18.0736 15.4885 18.2913 15.4904 18.508 15.4904C18.6482 15.4904 18.7884 15.4904 18.9286 15.4895C19.3147 15.4876 19.5487 15.2445 19.555 14.8412C19.5568 14.7064 19.5568 14.5717 19.5559 14.4287C19.5559 14.3613 19.5559 14.2931 19.5559 14.2229V14.0408H19.738C19.8254 14.0408 19.9083 14.0408 19.9893 14.0427C20.0649 14.0427 20.1377 14.0445 20.2106 14.0445C20.3126 14.0445 20.3963 14.0427 20.4737 14.0399C20.7623 14.0281 20.9927 13.7732 20.9872 13.4727C20.9827 13.2041 20.7314 12.9765 20.4391 12.9756H20.4091C20.2679 12.9756 20.1259 12.9765 19.9848 12.9774C19.8427 12.9783 19.6998 12.9792 19.5578 12.9792C19.3438 12.9792 19.1681 12.9765 19.0033 12.9719C18.9932 12.9719 18.9832 12.9719 18.9741 12.9719C18.7074 12.9719 18.5553 13.0876 18.4943 13.337C18.447 13.5291 18.4287 13.7313 18.4096 13.9452C18.4014 14.0408 18.3923 14.1401 18.3805 14.2393L18.3614 14.3996H16.6287V14.2175C16.6287 14.1283 16.6287 14.0427 16.6305 13.958C16.6323 13.7804 16.6341 13.6129 16.6269 13.4481C16.6168 13.1914 16.3464 12.9747 16.0369 12.9747C16.0314 12.9747 16.025 12.9747 16.0196 12.9747C15.73 12.9819 15.5634 13.1568 15.5607 13.4527C15.5589 13.6166 15.5607 13.7841 15.5634 13.9462C15.567 14.2557 15.5716 14.5753 15.5516 14.8922C15.5406 15.0752 15.5843 15.2209 15.6818 15.3247C15.7847 15.4348 15.9513 15.4949 16.1489 15.4949V15.4958Z" fill="#001B2E"/>
<path d="M20.4209 7.17664C20.3881 7.17664 20.3535 7.17778 20.318 7.1812C20.074 7.20289 19.9219 7.46776 19.9201 7.87191C19.9201 8.05572 19.9201 8.23953 19.9201 8.40964V8.62085V8.82521L19.758 8.84804C19.647 8.86402 19.5404 8.87658 19.4376 8.88914C19.2218 8.91426 19.0178 8.93937 18.8239 8.98504C18.7228 9.00901 18.5908 9.14145 18.5043 9.30585C18.4342 9.43942 18.4123 9.55701 18.4223 9.6141C18.5453 10.3162 18.8293 10.3162 18.9222 10.3162C18.9295 10.3162 18.9359 10.3162 18.9431 10.3162C19.0296 10.3128 19.1225 10.3105 19.2345 10.3105C19.311 10.3105 19.3902 10.3105 19.4712 10.3117C19.5568 10.3117 19.6461 10.3139 19.7389 10.3139H19.921V10.5423C19.921 10.653 19.921 10.7592 19.921 10.8619C19.921 11.0754 19.9192 11.2775 19.9228 11.4762C19.9292 11.87 20.0867 12.1041 20.3562 12.1166C20.3663 12.1166 20.3763 12.1166 20.3863 12.1166C20.7214 12.1166 20.9872 11.8541 20.9927 11.5173C21.0145 10.0776 21.0145 8.88685 20.9927 7.7703C20.99 7.62303 20.9808 7.17664 20.4209 7.17664Z" fill="#001B2E"/>
<path d="M6.44325 9.11366C6.44325 9.04356 6.44416 8.97527 6.44507 8.90971C6.44689 8.77678 6.44962 8.65113 6.44143 8.53004C6.41047 8.05202 6.23748 7.85718 5.84596 7.85718C5.82229 7.85718 5.79862 7.85718 5.77403 7.859C5.66113 7.86537 5.54004 7.8681 5.39527 7.8681C5.29238 7.8681 5.19041 7.86628 5.08752 7.86537C4.98645 7.86355 4.8863 7.86264 4.78523 7.86264C4.61406 7.86264 4.47475 7.86719 4.34819 7.8763C4.22983 7.8854 4.06412 7.97372 3.97944 8.07479C3.83923 8.2405 3.83376 8.42351 3.96032 8.63292C4.08415 8.83687 4.24349 8.9261 4.49296 8.93066C4.57218 8.93248 4.65139 8.93248 4.7306 8.93248C4.79525 8.93248 4.85989 8.93248 4.92454 8.93248C4.99101 8.93248 5.05747 8.93248 5.12485 8.93248H5.30695V9.11458C5.30695 9.19379 5.30695 9.26754 5.30604 9.33856C5.30513 9.48333 5.30331 9.60807 5.30877 9.7328C5.32425 10.148 5.5373 10.3601 5.94066 10.3629C5.96342 10.3629 5.98618 10.3629 6.00894 10.3629C6.13277 10.3629 6.25933 10.3601 6.38225 10.3583C6.50607 10.3565 6.63537 10.3538 6.76192 10.3538C6.96314 10.3538 7.12794 10.3592 7.28182 10.372C7.29274 10.372 7.30367 10.3729 7.31551 10.3729C7.45208 10.3729 7.59867 10.3055 7.70884 10.1926C7.81992 10.0788 7.87911 9.93676 7.87455 9.79199C7.86727 9.50882 7.60322 9.29576 7.26179 9.29576H7.25724C7.18075 9.29576 7.10518 9.29576 7.02688 9.29576H6.83567H6.62444H6.44234V9.11366H6.44325Z" fill="#001B2E"/>
<path d="M15.5589 9.42219L15.5607 9.65063C15.5607 9.83567 15.5607 10.0207 15.5607 10.2057C15.5598 10.6238 15.5589 11.0567 15.5625 11.4816C15.5662 11.8722 15.7246 12.1041 15.9959 12.1166C16.0059 12.1166 16.015 12.1166 16.0251 12.1166C16.3601 12.1166 16.626 11.8539 16.6314 11.5181C16.6533 10.1269 16.6533 8.90364 16.6314 7.77515C16.6287 7.62666 16.6205 7.17664 16.0551 7.17664C16.0251 7.17664 15.9941 7.17778 15.9622 7.18006C15.7146 7.20062 15.5598 7.4599 15.5589 7.85853C15.558 8.27429 15.5589 8.69005 15.5589 9.10695V9.42105V9.42219Z" fill="#001B2E"/>
<path d="M10.0303 3.81808C9.9438 3.81808 9.8573 3.81808 9.7708 3.81899C9.68339 3.81899 9.59599 3.8199 9.50858 3.8199H9.13983H8.82844C8.37319 3.8199 8.28851 4.06846 8.26393 4.25511C8.24572 4.39715 8.30672 4.57561 8.41871 4.70854C8.50521 4.81143 8.60809 4.8697 8.70825 4.87334C8.8257 4.8779 8.94953 4.87972 9.07518 4.87972C9.52223 4.87972 9.96929 4.85331 10.5028 4.81325C10.5201 4.81143 10.5811 4.77592 10.654 4.68032C10.7705 4.52917 10.8224 4.35891 10.8151 4.29882C10.7778 4.02476 10.5875 3.82809 10.3544 3.82081C10.2588 3.81808 10.1559 3.81625 10.0312 3.81625L10.0303 3.81808Z" fill="#001B2E"/>
<path d="M1.4182 10.3565C1.44187 10.3583 1.46463 10.3583 1.4874 10.3583C1.79788 10.3583 1.9645 10.2227 2.01366 9.93129C2.04644 9.73371 2.06556 9.53614 2.08468 9.32672C2.09288 9.24022 2.10107 9.15282 2.11018 9.06541C2.10107 8.978 2.09288 8.89059 2.08468 8.80319C2.06556 8.59377 2.04826 8.39619 2.01275 8.19953C1.99728 8.11485 1.95084 7.85718 1.46737 7.85718C1.43186 7.85718 1.39544 7.859 1.35811 7.86173C1.17054 7.87539 1.01485 8.05567 1.0103 8.26235C0.997549 8.84962 0.996638 9.38044 1.00756 9.88486C1.01394 10.1507 1.17874 10.3401 1.4182 10.3556V10.3565Z" fill="#001B2E"/>
<path d="M6.89502 12.2917C7.34481 11.6632 7.8895 11.1875 8.63012 10.9854C9.59749 10.7205 10.5168 10.8659 11.3388 11.4229C12.3197 12.0871 12.7522 13.0742 12.7572 14.2326C12.7609 15.1285 12.4257 15.9258 11.8576 16.6221C11.0837 17.571 10.1594 18.3572 9.20069 19.1101C8.61164 19.5735 8.03615 20.0553 7.46805 20.5445C7.00716 20.9426 6.76809 20.9685 6.29364 20.5766C5.44827 19.8791 4.60537 19.1779 3.77355 18.4644C3.28802 18.0479 2.80741 17.6215 2.36008 17.1655C1.70325 16.4951 1.16719 15.7249 1.04026 14.7773C0.907173 13.789 1.09449 12.8561 1.74515 12.0428C2.39951 11.2245 3.25228 10.8548 4.26524 10.8721C5.27575 10.8893 6.11742 11.2923 6.72249 12.1303C6.76562 12.1894 6.83094 12.2338 6.89378 12.2917H6.89502ZM2.19125 14.1648C2.16907 14.7637 2.35761 15.2788 2.71992 15.6966C3.23995 16.2955 3.78587 16.8784 4.37369 17.4095C5.12294 18.0861 5.93257 18.6948 6.70154 19.3504C6.84696 19.4749 6.94431 19.4342 7.05399 19.359C7.19694 19.2605 7.32386 19.1409 7.45819 19.0288C8.06449 18.5223 8.68804 18.0355 9.2697 17.5019C9.87353 16.9474 10.4786 16.3818 11.006 15.757C11.5458 15.1174 11.7195 14.3201 11.4632 13.5142C11.133 12.4753 10.3997 12.0563 9.43729 12.0551C8.83838 12.0551 8.32451 12.3287 7.99055 12.8462C7.78105 13.1716 7.6036 13.5203 7.43354 13.8691C7.33003 14.0798 7.19324 14.2006 6.95294 14.2166C6.69292 14.2338 6.48096 14.187 6.36389 13.9233C6.25175 13.6707 6.14823 13.4119 6.00898 13.1753C5.46183 12.2535 4.59181 11.8456 3.58008 12.1574C2.80864 12.3952 2.15921 13.1913 2.19372 14.1648H2.19125Z" fill="#EB141C"/>
</g>
<defs>
<clipPath id="clip0_380_849">
<rect width="20.0437" height="20" fill="white" transform="translate(0.978149 0.857178)"/>
</clipPath>
</defs>
</svg>
