<svg width="22" height="21" viewBox="0 0 22 21" fill="none" xmlns="http://www.w3.org/2000/svg">
<g clip-path="url(#clip0_380_1486)">
<path d="M19.5405 0.458655C19.2537 0.440445 18.9468 0.432251 18.5772 0.432251C18.3004 0.432251 18.0181 0.436803 17.7441 0.441356C17.4782 0.445908 17.2032 0.450461 16.9328 0.450461C16.5868 0.450461 16.2317 0.616172 15.9577 0.903889C15.69 1.18523 15.5398 1.54761 15.5561 1.87266C15.5707 2.16675 15.5671 2.46357 15.5634 2.75129C15.5616 2.88149 15.5598 3.01078 15.5598 3.14098V3.47696C15.5607 3.802 15.5616 4.13798 15.5598 4.4694C15.558 4.81994 15.7073 5.16593 15.9813 5.44181C16.2572 5.71951 16.6269 5.88613 16.972 5.88704H17.0867C17.3134 5.88704 17.5392 5.88522 17.7659 5.88431C17.9936 5.88249 18.2203 5.88158 18.4479 5.88158C18.843 5.88158 19.1645 5.88613 19.4613 5.89706C19.4749 5.89706 19.4895 5.89706 19.5032 5.89706C20.1879 5.89706 20.9681 5.29795 20.9946 4.43844C21.02 3.59623 21.0392 2.77041 20.9918 1.9373C20.9417 1.06505 20.3991 0.512375 19.5396 0.459566L19.5405 0.458655ZM19.7736 4.65423C19.6716 4.75712 19.5277 4.8081 19.3338 4.8081H19.3265C18.9951 4.80628 18.6027 4.80355 18.2048 4.80355C17.8333 4.80355 17.501 4.80537 17.1868 4.80993H17.1723C16.992 4.80993 16.86 4.7644 16.7689 4.67062C16.677 4.57593 16.636 4.44208 16.6415 4.25998C16.6497 4.0014 16.6478 3.73645 16.646 3.4806C16.646 3.3677 16.6442 3.25571 16.6442 3.1428C16.6442 3.0299 16.6442 2.9261 16.6442 2.81776C16.6442 2.56828 16.6451 2.3097 16.6424 2.05658C16.6405 1.88085 16.6833 1.75156 16.7735 1.66051C16.8627 1.57037 16.9874 1.52667 17.155 1.52667H17.1686C17.4873 1.53122 17.8242 1.53304 18.1993 1.53304C18.6072 1.53304 19.006 1.53031 19.3083 1.52849H19.3165C19.515 1.52849 19.6625 1.58039 19.7672 1.68601C19.8746 1.79436 19.9256 1.94914 19.9229 2.15947C19.9147 2.88695 19.9147 3.55344 19.9229 4.19625C19.9256 4.4002 19.8765 4.55043 19.7727 4.65514L19.7736 4.65423Z" fill="#445979"/>
<path d="M1.03918 1.73515C1.03371 2.06202 1.03462 2.39526 1.03644 2.71758C1.03644 2.8059 1.03644 2.89422 1.03735 2.98345L1.03918 3.16099C1.03918 3.31214 1.03827 3.46328 1.03735 3.61442C1.03553 3.94402 1.0328 4.28546 1.04191 4.6187C1.05739 5.22509 1.74572 5.89067 2.35667 5.89067H2.36122C2.53694 5.88976 2.71176 5.88794 2.88749 5.88611C3.18522 5.88338 3.49388 5.88065 3.79707 5.88065C4.20134 5.88065 4.5364 5.8852 4.85234 5.89613C4.86873 5.89613 4.88603 5.89613 4.90242 5.89613C5.73826 5.89613 6.43661 5.21781 6.46028 4.3847C6.4794 3.70092 6.45118 3.00166 6.42386 2.32516C6.41567 2.12576 6.40747 1.92545 6.4011 1.72605C6.37743 1.04318 5.80199 0.499608 5.06176 0.461367C4.63655 0.439515 4.20225 0.428589 3.77158 0.428589C3.28173 0.428589 2.7846 0.443157 2.29384 0.471382C1.62463 0.509623 1.05101 1.0887 1.03918 1.73515ZM3.05684 1.52847H3.38826H3.71968H3.74062C3.84351 1.52847 3.94549 1.52847 4.04837 1.52938C4.15035 1.52938 4.25232 1.53029 4.35339 1.53029C4.51455 1.53029 4.64748 1.52847 4.76949 1.52574C4.78041 1.52574 4.79043 1.52574 4.80135 1.52574C4.99347 1.52574 5.13642 1.57582 5.23839 1.67779C5.34037 1.78068 5.38953 1.92545 5.38862 2.12029C5.38407 2.71303 5.38498 3.31669 5.3868 3.89941V4.22901C5.38771 4.41111 5.33764 4.55497 5.23748 4.65512C5.13733 4.75528 4.99438 4.80626 4.81228 4.80626C4.42168 4.80626 4.03471 4.80444 3.64866 4.80444C3.30996 4.80444 2.97125 4.80444 2.63255 4.80717H2.62708C2.45591 4.80717 2.32844 4.76347 2.23921 4.67242C2.14816 4.58046 2.10537 4.45117 2.10719 4.27544C2.11721 3.37678 2.11629 2.68571 2.10537 2.0338C2.10264 1.86718 2.1427 1.74335 2.22829 1.65685C2.31296 1.57126 2.43315 1.52938 2.59613 1.52938H3.05775L3.05684 1.52847Z" fill="#445979"/>
<path d="M1.02638 16.4607C1.02729 16.742 1.02638 17.0234 1.02638 17.3047V17.5059H1.03913V17.688C1.03913 17.8383 1.03913 17.9885 1.04095 18.1387C1.04277 18.472 1.04459 18.8161 1.03731 19.1567C1.03185 19.4143 1.18117 19.7239 1.43702 19.9852C1.69833 20.252 2.01518 20.4122 2.28469 20.4122H2.29289C2.53872 20.4095 2.79366 20.4077 3.04951 20.4077C3.60218 20.4077 4.17033 20.4141 4.78492 20.4277C4.80131 20.4277 4.81861 20.4277 4.835 20.4277C5.82107 20.4277 6.44749 19.7913 6.46843 18.7679C6.48664 17.8847 6.48573 17.2045 6.46661 16.5626C6.43929 15.6394 5.82744 15.0194 4.90693 14.9848C4.56003 14.9711 4.19947 14.9647 3.80249 14.9647C3.42555 14.9647 3.02311 14.9702 2.53417 14.9829C1.62822 15.0057 1.02274 15.6002 1.02638 16.4616V16.4607ZM3.40916 16.0628H3.84346H4.27868C4.46351 16.0628 4.64926 16.0628 4.83409 16.0628C5.18008 16.0637 5.38676 16.2749 5.38676 16.6282V16.9824C5.38676 17.5797 5.38585 18.177 5.38676 18.7742C5.38676 18.9536 5.33759 19.0938 5.24017 19.1922C5.14184 19.2905 5.00071 19.3406 4.81952 19.3406H4.7485C4.37155 19.3388 3.9937 19.3369 3.61675 19.3369C3.2398 19.3369 2.8838 19.3388 2.56877 19.3424H2.55693C2.4586 19.3424 2.31565 19.3306 2.21367 19.2249C2.13628 19.1457 2.10168 19.0328 2.10532 18.8799C2.11261 18.6104 2.1117 18.3345 2.10988 18.0686C2.10988 17.9548 2.10897 17.841 2.10897 17.7272C2.10897 17.6106 2.10897 17.4932 2.10988 17.3757C2.1117 17.1235 2.11261 16.8622 2.10532 16.6082C2.09986 16.4261 2.14174 16.2922 2.2337 16.1975C2.32111 16.1074 2.44949 16.0619 2.61429 16.0619C2.88198 16.0628 3.14511 16.0637 3.40825 16.0637L3.40916 16.0628Z" fill="#445979"/>
<path d="M13.2056 7.00116H13.2165H13.2238C13.4605 6.99205 13.6517 6.79994 13.6708 6.5541C13.6854 6.36472 13.6462 6.21813 13.5543 6.11706C13.4505 6.00325 13.2766 5.94407 13.0371 5.94043C12.4863 5.93223 11.9054 5.92859 11.2097 5.92859C10.6398 5.92859 10.0598 5.93132 9.49983 5.93405C9.26128 5.93496 9.02182 5.93587 8.78327 5.93678C8.54927 5.93678 8.38538 6.04422 8.29524 6.25364C8.2133 6.44302 8.21967 6.63331 8.31254 6.77717C8.40632 6.92194 8.58023 7.00753 8.79147 7.01208C9.04549 7.01754 9.31864 7.01937 9.65098 7.01937C9.86858 7.01937 10.0862 7.01845 10.3056 7.01754C10.5269 7.01663 10.749 7.01572 10.973 7.01572H11.1551V8.74294L10.994 8.76115C10.8938 8.77298 10.7973 8.78209 10.7017 8.79211C10.4968 8.81305 10.3038 8.83217 10.1153 8.86677C9.87587 8.91047 9.65462 9.20547 9.6701 9.38575C9.69741 9.69896 9.93141 9.92659 10.2264 9.92841C10.7618 9.93114 11.3436 9.93205 12.0583 9.93205C12.4016 9.93205 12.7439 9.93205 13.0872 9.93205C13.4213 9.93205 13.6663 9.7108 13.669 9.40578C13.6726 9.04249 13.4851 8.86039 13.0954 8.84947C13.0262 8.84765 12.9515 8.84674 12.8605 8.84674C12.7949 8.84674 12.7294 8.84674 12.6611 8.84765C12.5882 8.84765 12.5145 8.84856 12.4371 8.84856H12.255V7.95172C12.255 7.5256 12.255 7.31255 12.4034 7.16322C12.5509 7.01481 12.7667 7.01117 13.1974 7.00207H13.2065L13.2056 7.00116Z" fill="#445979"/>
<path d="M20.3973 16.9074C20.3909 16.9074 20.3845 16.9074 20.3791 16.9074C20.0932 16.9156 19.9265 17.0913 19.9229 17.39C19.9211 17.5657 19.9211 17.7423 19.922 17.9135C19.922 17.9882 19.922 18.0619 19.922 18.1339V19.316H18.0564V18.1339C18.0564 18.0437 18.06 17.9554 18.0637 17.8707C18.0709 17.6895 18.0782 17.5184 18.0473 17.3654C18.0245 17.2507 17.9271 17.1023 17.8105 17.0048C17.724 16.9329 17.6275 16.8965 17.5228 16.8965C17.3771 16.8965 17.226 16.9693 17.1186 17.0904C17.0139 17.2097 16.9656 17.3554 16.9838 17.5001C17.0038 17.6567 16.9984 17.8106 16.9938 17.9599C16.992 18.0246 16.9893 18.0865 16.9893 18.1466V19.3287H15.1929V18.1466C15.1929 18.0619 15.1938 17.9809 15.1956 17.9017C15.1983 17.7414 15.201 17.5894 15.1901 17.4437C15.1701 17.1614 14.9552 16.9356 14.6793 16.9074C14.6475 16.9038 14.6165 16.9029 14.5874 16.9029C14.327 16.9029 14.1804 17.024 14.1394 17.2725C14.0711 17.6904 14.0484 19.1593 14.0666 19.7475C14.0811 20.2055 14.2887 20.4286 14.7003 20.4286C14.7094 20.4286 14.7176 20.4286 14.7267 20.4286C14.998 20.4222 15.2894 20.4195 15.6436 20.4195C15.8721 20.4195 16.1006 20.4204 16.3282 20.4222C16.5559 20.4231 16.7835 20.4249 17.0111 20.4249H17.0166C17.3307 20.4249 17.6448 20.4249 17.9589 20.4249C18.2731 20.4249 18.5872 20.4249 18.9013 20.4249C19.3948 20.4249 19.8883 20.4249 20.3818 20.4222C20.6995 20.4213 20.9818 20.1918 20.9864 19.9324C20.9973 19.3724 20.9973 17.8625 20.9864 17.3736C20.9809 17.125 20.705 16.9074 20.3954 16.9074H20.3973Z" fill="#445979"/>
<path d="M13.7424 15.5009C13.7433 15.3407 13.7451 15.1795 13.746 15.0193C13.7533 14.2527 13.7597 13.4605 13.7369 12.683C13.726 12.3151 13.522 12.1039 13.177 12.1039C13.1551 12.1039 13.1333 12.1039 13.1105 12.1066C12.9593 12.1184 12.7945 12.1239 12.5924 12.1239C12.4804 12.1239 12.3684 12.1221 12.2564 12.1203C12.1463 12.1185 12.0361 12.1175 11.9259 12.1175C11.8331 12.1175 11.7502 12.1185 11.6728 12.1212C11.5745 12.1239 11.4579 12.1612 11.3696 12.2177C11.1984 12.326 11.152 12.499 11.2075 12.815C11.2321 12.957 11.5171 13.1737 11.7393 13.1819C11.8176 13.1846 11.9013 13.1856 12.0042 13.1856C12.0753 13.1856 12.1472 13.1856 12.2182 13.1846C12.291 13.1846 12.3639 13.1837 12.4376 13.1837H12.6197V14.9792H11.4033H10.3908C9.8937 14.9792 9.3993 14.9792 8.9049 14.9801C8.69639 14.9801 8.52613 15.0421 8.41141 15.1577C8.31398 15.2569 8.263 15.3926 8.26482 15.5501C8.26846 15.8588 8.51156 16.0591 8.88578 16.0609C9.24087 16.0627 9.59597 16.0627 9.95106 16.0627C10.2069 16.0627 10.4628 16.0627 10.7186 16.0627C10.9745 16.0627 11.2303 16.0627 11.4862 16.0627C11.9378 16.0627 12.5341 16.0627 13.1414 16.0682C13.461 16.0682 13.7396 15.8041 13.7424 15.5037V15.5009Z" fill="#445979"/>
<path d="M8.89307 1.52762C9.39293 1.52762 9.89371 1.52762 10.3963 1.52762H11.4179H12.465H12.6471V1.70972C12.6471 1.94099 12.6471 2.16952 12.648 2.39441C12.6498 2.92432 12.6507 3.4251 12.6443 3.93407C12.6425 4.05061 12.699 4.17444 12.7973 4.27459C12.9065 4.38567 13.0513 4.45214 13.1842 4.45214C13.2544 4.45214 13.3181 4.43393 13.3745 4.3966C13.6304 4.22907 13.7406 4.03604 13.7433 3.75197C13.7506 2.83965 13.7478 1.92369 13.7442 1.06418C13.7424 0.676305 13.5166 0.451412 13.1242 0.44777C12.5178 0.442307 11.8731 0.439575 11.1538 0.439575C10.369 0.439575 9.59324 0.442307 8.87122 0.445949C8.68183 0.445949 8.51521 0.510594 8.40231 0.626227C8.31035 0.720919 8.26301 0.841105 8.26574 0.973127C8.27302 1.31912 8.50793 1.5258 8.89307 1.52671V1.52762Z" fill="#445979"/>
<path d="M16.1489 15.0674H16.168C16.4693 15.061 16.7989 15.0583 17.2041 15.0583C17.4217 15.0583 17.6393 15.0583 17.8569 15.0601C18.0736 15.0601 18.2913 15.0619 18.508 15.0619C18.6482 15.0619 18.7884 15.0619 18.9286 15.061C19.3147 15.0592 19.5487 14.8161 19.555 14.4127C19.5568 14.278 19.5568 14.1432 19.5559 14.0003C19.5559 13.9329 19.5559 13.8646 19.5559 13.7945V13.6124H19.738C19.8254 13.6124 19.9083 13.6124 19.9893 13.6142C20.0649 13.6142 20.1377 13.616 20.2106 13.616C20.3126 13.616 20.3963 13.6142 20.4737 13.6115C20.7623 13.5996 20.9927 13.3447 20.9872 13.0442C20.9827 12.7756 20.7314 12.548 20.4391 12.5471H20.4091C20.2679 12.5471 20.1259 12.548 19.9848 12.5489C19.8427 12.5498 19.6998 12.5507 19.5578 12.5507C19.3438 12.5507 19.1681 12.548 19.0033 12.5435C18.9932 12.5435 18.9832 12.5435 18.9741 12.5435C18.7074 12.5435 18.5553 12.6591 18.4943 12.9086C18.447 13.1007 18.4287 13.3028 18.4096 13.5168C18.4014 13.6124 18.3923 13.7116 18.3805 13.8109L18.3614 13.9711H16.6287V13.789C16.6287 13.6998 16.6287 13.6142 16.6305 13.5295C16.6323 13.352 16.6341 13.1844 16.6269 13.0196C16.6168 12.7629 16.3464 12.5462 16.0369 12.5462C16.0314 12.5462 16.025 12.5462 16.0196 12.5462C15.73 12.5535 15.5634 12.7283 15.5607 13.0242C15.5589 13.1881 15.5607 13.3556 15.5634 13.5177C15.567 13.8273 15.5716 14.1468 15.5516 14.4637C15.5406 14.6467 15.5843 14.7924 15.6818 14.8962C15.7847 15.0064 15.9513 15.0664 16.1489 15.0664V15.0674Z" fill="#445979"/>
<path d="M11.7548 17.8993C11.3423 17.8947 10.9116 17.892 10.4746 17.892C9.92739 17.892 9.36835 17.8956 8.76377 17.9029C8.53615 17.9056 8.2894 18.1196 8.28667 18.268C8.27666 18.8398 8.26664 19.4316 8.32582 20.0107C8.35587 20.2993 8.49154 20.4168 8.79473 20.4168C8.83935 20.4168 8.88669 20.414 8.93768 20.4086C9.1735 20.3831 9.33193 20.1719 9.33284 19.8823C9.33284 19.7294 9.33284 19.5764 9.33284 19.4089V19.1576V18.9755H9.51494C9.73983 18.9755 9.96199 18.9755 10.1823 18.9755C10.3981 18.9755 10.6121 18.9755 10.8251 18.9755C11.172 18.9755 11.4552 18.9746 11.7165 18.9718C12.017 18.9691 12.2528 18.7378 12.2637 18.4337C12.2683 18.3099 12.21 18.1724 12.108 18.0659C12.0079 17.9603 11.8786 17.8993 11.7548 17.8983V17.8993Z" fill="#445979"/>
<path d="M20.4209 6.74805C20.3881 6.74805 20.3535 6.74919 20.318 6.75261C20.074 6.77431 19.9219 7.03917 19.9201 7.44332C19.9201 7.62713 19.9201 7.81094 19.9201 7.98105V8.19226V8.39662L19.758 8.41945C19.647 8.43543 19.5404 8.44799 19.4376 8.46055C19.2218 8.48567 19.0178 8.51078 18.8239 8.55645C18.7228 8.58043 18.5908 8.71286 18.5043 8.87726C18.4342 9.01083 18.4123 9.12843 18.4223 9.18551C18.5453 9.88763 18.8293 9.88764 18.9222 9.88764C18.9295 9.88764 18.9359 9.88764 18.9431 9.88764C19.0296 9.88421 19.1225 9.88193 19.2345 9.88193C19.311 9.88193 19.3902 9.88193 19.4712 9.88307C19.5568 9.88307 19.6461 9.88535 19.7389 9.88535H19.921V10.1137C19.921 10.2244 19.921 10.3306 19.921 10.4334C19.921 10.6468 19.9192 10.8489 19.9228 11.0476C19.9292 11.4414 20.0867 11.6755 20.3562 11.688C20.3663 11.688 20.3763 11.688 20.3863 11.688C20.7214 11.688 20.9872 11.4255 20.9927 11.0887C21.0145 9.64903 21.0145 8.45827 20.9927 7.34171C20.99 7.19444 20.9808 6.74805 20.4209 6.74805Z" fill="#445979"/>
<path d="M6.44325 8.68508C6.44325 8.61497 6.44416 8.54668 6.44507 8.48112C6.44689 8.34819 6.44962 8.22254 6.44143 8.10145C6.41047 7.62344 6.23748 7.42859 5.84596 7.42859C5.82229 7.42859 5.79862 7.42859 5.77403 7.43041C5.66113 7.43678 5.54004 7.43951 5.39527 7.43951C5.29238 7.43951 5.19041 7.43769 5.08752 7.43678C4.98645 7.43496 4.8863 7.43405 4.78523 7.43405C4.61406 7.43405 4.47475 7.4386 4.34819 7.44771C4.22983 7.45681 4.06412 7.54513 3.97944 7.6462C3.83923 7.81191 3.83376 7.99492 3.96032 8.20433C4.08415 8.40828 4.24349 8.49751 4.49296 8.50207C4.57218 8.50389 4.65139 8.50389 4.7306 8.50389C4.79525 8.50389 4.85989 8.50389 4.92454 8.50389C4.99101 8.50389 5.05747 8.50389 5.12485 8.50389H5.30695V8.68599C5.30695 8.7652 5.30695 8.83895 5.30604 8.90997C5.30513 9.05474 5.30331 9.17948 5.30877 9.30421C5.32425 9.7194 5.5373 9.93155 5.94066 9.93428C5.96342 9.93428 5.98618 9.93428 6.00894 9.93428C6.13277 9.93428 6.25933 9.93155 6.38225 9.92973C6.50607 9.92791 6.63537 9.92517 6.76192 9.92517C6.96314 9.92517 7.12794 9.93064 7.28182 9.94338C7.29274 9.94338 7.30367 9.94429 7.31551 9.94429C7.45208 9.94429 7.59867 9.87692 7.70884 9.76402C7.81992 9.6502 7.87911 9.50817 7.87455 9.3634C7.86727 9.08023 7.60322 8.86718 7.26179 8.86718H7.25724C7.18075 8.86718 7.10518 8.86718 7.02688 8.86718H6.83567H6.62444H6.44234V8.68508H6.44325Z" fill="#445979"/>
<path d="M1.61642 13.1655C1.80034 13.1655 1.97971 13.1646 2.15908 13.1646H2.58701H3.01495H3.58765C3.82711 13.1646 4.06657 13.1646 4.30603 13.1646C4.70756 13.1646 4.94611 12.9807 4.97889 12.6484C4.99346 12.5009 4.9534 12.3688 4.86235 12.2669C4.74762 12.1385 4.56279 12.0693 4.32788 12.0665C3.87992 12.0611 3.42922 12.0583 2.98945 12.0583C2.54968 12.0583 2.06621 12.0611 1.61369 12.0675C1.41156 12.0702 1.21853 12.1521 1.09562 12.2878C1.03552 12.3543 0.966325 12.4626 0.979072 12.6019C0.99364 12.7713 1.08651 13.1655 1.61551 13.1655H1.61642Z" fill="#445979"/>
<path d="M15.5589 8.99361L15.5607 9.22205C15.5607 9.40708 15.5607 9.59212 15.5607 9.77715C15.5598 10.1952 15.5589 10.6281 15.5625 11.053C15.5662 11.4436 15.7246 11.6755 15.9959 11.688C16.0059 11.688 16.015 11.688 16.0251 11.688C16.3601 11.688 16.626 11.4253 16.6314 11.0895C16.6533 9.69834 16.6533 8.47505 16.6314 7.34656C16.6287 7.19807 16.6205 6.74805 16.0551 6.74805C16.0251 6.74805 15.9941 6.74919 15.9622 6.75147C15.7146 6.77203 15.5598 7.03131 15.5589 7.42994C15.558 7.8457 15.5589 8.26146 15.5589 8.67836V8.99246V8.99361Z" fill="#445979"/>
<path d="M10.0303 3.38949C9.9438 3.38949 9.8573 3.38949 9.7708 3.3904C9.68339 3.3904 9.59599 3.39131 9.50858 3.39131H9.13983H8.82844C8.37319 3.39131 8.28851 3.63987 8.26393 3.82653C8.24572 3.96856 8.30672 4.14702 8.41871 4.27995C8.50521 4.38284 8.60809 4.44111 8.70825 4.44475C8.8257 4.44931 8.94953 4.45113 9.07518 4.45113C9.52223 4.45113 9.96929 4.42472 10.5028 4.38466C10.5201 4.38284 10.5811 4.34733 10.654 4.25173C10.7705 4.10059 10.8224 3.93032 10.8151 3.87023C10.7778 3.59617 10.5875 3.3995 10.3544 3.39222C10.2588 3.38949 10.1559 3.38767 10.0312 3.38767L10.0303 3.38949Z" fill="#445979"/>
<path d="M1.4182 9.92791C1.44187 9.92973 1.46463 9.92973 1.4874 9.92973C1.79788 9.92973 1.9645 9.79406 2.01366 9.5027C2.04644 9.30513 2.06556 9.10755 2.08468 8.89813C2.09288 8.81164 2.10107 8.72423 2.11018 8.63682C2.10107 8.54941 2.09288 8.462 2.08468 8.3746C2.06556 8.16518 2.04826 7.9676 2.01275 7.77094C1.99728 7.68626 1.95084 7.42859 1.46737 7.42859C1.43186 7.42859 1.39544 7.43041 1.35811 7.43314C1.17054 7.4468 1.01485 7.62708 1.0103 7.83376C0.997549 8.42103 0.996638 8.95185 1.00756 9.45627C1.01394 9.72213 1.17874 9.91152 1.4182 9.927V9.92791Z" fill="#445979"/>
<path d="M8.75929 13.1765C8.85216 13.1728 8.96962 13.1337 9.10984 13.059C9.29558 12.9598 9.39482 12.6894 9.33473 12.4435C9.29193 12.2678 9.07342 12.1176 8.85672 12.1167C8.75656 12.1167 8.65641 12.1158 8.55625 12.1158C8.47613 12.1158 8.39692 12.1158 8.31679 12.1158C8.23667 12.1158 8.15654 12.1158 8.07733 12.1158C7.99812 12.1158 7.9189 12.1148 7.83969 12.113C7.76139 12.1121 7.68217 12.1112 7.60387 12.1112C7.47549 12.1112 7.37078 12.1139 7.27609 12.1212C7.19324 12.1267 7.09217 12.1649 7.00385 12.2214C6.77441 12.3698 6.79262 12.6156 6.84725 12.795C6.91827 13.0281 7.10492 13.1719 7.34529 13.1792C7.57018 13.1865 7.7969 13.1901 8.01906 13.1901C8.26671 13.1901 8.51619 13.1856 8.75838 13.1765H8.75929Z" fill="#445979"/>
</g>
<defs>
<clipPath id="clip0_380_1486">
<rect width="20.0437" height="20" fill="white" transform="translate(0.978149 0.428589)"/>
</clipPath>
</defs>
</svg>
